<?xml version="1.0" encoding="utf-8"?>
<!-- Generator: Adobe Illustrator 24.0.0, SVG Export Plug-In . SVG Version: 6.00 Build 0)  -->
<svg version="1.1"
	 id="svg8" xmlns:cc="http://creativecommons.org/ns#" xmlns:dc="http://purl.org/dc/elements/1.1/" xmlns:inkscape="http://www.inkscape.org/namespaces/inkscape" xmlns:rdf="http://www.w3.org/1999/02/22-rdf-syntax-ns#" xmlns:sodipodi="http://sodipodi.sourceforge.net/DTD/sodipodi-0.dtd" xmlns:svg="http://www.w3.org/2000/svg"
	 xmlns="http://www.w3.org/2000/svg" xmlns:xlink="http://www.w3.org/1999/xlink" x="0px" y="0px" viewBox="0 0 64.7 64.7"
	 style="enable-background:new 0 0 64.7 64.7;" xml:space="preserve">
<style type="text/css">
	.st0{fill:#272C4A;}
</style>
<sodipodi:namedview  bordercolor="#666666" borderlayer="true" borderopacity="1.0" fit-margin-bottom="0" fit-margin-left="0" fit-margin-right="0" fit-margin-top="0" id="base" inkscape:current-layer="layer1" inkscape:cx="56.624767" inkscape:cy="42.528834" inkscape:document-units="cm" inkscape:pagecheckerboard="true" inkscape:pageopacity="0.0" inkscape:pageshadow="2" inkscape:showpageshadow="false" inkscape:snap-page="true" inkscape:window-height="1009" inkscape:window-maximized="1" inkscape:window-width="2560" inkscape:window-x="0" inkscape:window-y="0" inkscape:zoom="2.8" pagecolor="#ffffff" showgrid="false" units="cm">
	</sodipodi:namedview>
<g id="g2484" transform="matrix(0.35141405,0,0,0.35141405,58.249128,164.06557)">
	<g id="g5541" transform="matrix(0.81804326,0,0,0.81804326,-41.402374,6.652069)">
		<path id="path2786-3" inkscape:connector-curvature="0" class="st0" d="M-61.9-450.7v17.9c0,0.5,0,1.1,0.1,1.7h21.2v-19.6H-61.9z
			 M-56-441.9c-0.1,0.1-0.2,0.2-0.3,0.3l0,0l0,0c-0.1-0.1-0.2-0.2-0.3-0.3c-1.9-1.8-2.7-3.5-2.7-3.7l0,0c-0.1-0.2-0.2-0.5-0.2-0.7
			c0-1,0.9-1.9,1.9-1.9c0.5,0,1,0.2,1.3,0.6c0.4-0.4,0.8-0.6,1.3-0.6c1,0,1.9,0.9,1.9,1.9c0,0.3,0,0.5-0.2,0.7l0,0
			C-53.3-445.4-54-443.7-56-441.9L-56-441.9z M-47.9-437.3L-47.9-437.3c-0.1,0.2-0.8,1.9-2.8,3.7c-0.1,0.1-0.2,0.2-0.3,0.3l0,0l0,0
			c-0.1-0.1-0.2-0.2-0.3-0.3c-1.9-1.8-2.7-3.5-2.7-3.7l0,0c-0.1-0.2-0.2-0.5-0.2-0.7c0-1,0.9-1.9,1.9-1.9c0.5,0,1,0.2,1.3,0.6
			c0.4-0.4,0.8-0.6,1.3-0.6c1.1,0,1.9,0.9,1.9,1.9C-47.7-437.8-47.8-437.6-47.9-437.3L-47.9-437.3z M-42.6-445.6L-42.6-445.6
			c-0.1,0.2-0.8,1.9-2.8,3.7c-0.1,0.1-0.2,0.2-0.3,0.3l0,0l0,0c-0.1-0.1-0.2-0.2-0.3-0.3c-1.9-1.8-2.7-3.5-2.7-3.7l0,0
			c-0.1-0.2-0.2-0.5-0.2-0.7c0-1,0.8-1.9,1.9-1.9c0.5,0,1,0.2,1.3,0.6c0.4-0.4,0.8-0.6,1.3-0.6c1.1,0,1.9,0.9,1.9,1.9
			C-42.4-446.1-42.5-445.8-42.6-445.6L-42.6-445.6z"/>
		<path id="path2788-6" inkscape:connector-curvature="0" class="st0" d="M-55-447.7c-0.4,0-0.8,0.2-1.1,0.5
			c-0.1,0.1-0.2,0.3-0.2,0.4l0,0.1l0-0.1c-0.1-0.1-0.1-0.3-0.2-0.4c-0.3-0.3-0.6-0.5-1.1-0.5c-0.8,0-1.4,0.6-1.4,1.4
			c0,0.2,0,0.3,0.1,0.5l0,0v0.1c0,0.1,0.2,0.5,0.6,1.1c0.4,0.6,1,1.5,2,2.4c1-0.9,1.6-1.8,2-2.4c0.4-0.7,0.6-1.1,0.6-1.1v-0.1l0,0
			c0.1-0.2,0.1-0.3,0.1-0.5C-53.6-447.1-54.2-447.7-55-447.7L-55-447.7z"/>
		<path id="path2790-7" inkscape:connector-curvature="0" class="st0" d="M-16.6-450.7h-21.3l21.3,17.6V-450.7z M-24.2-444.9h-2.1
			l-1.1,1.8l-1.1-1.8h-2.1l1.1-1.8l-1.1-1.8h2.1l1.1-1.8l1.1,1.8h2.1l-1.1,1.8L-24.2-444.9z M-17.1-444.9h-2.1l-1.1,1.8l-1.1-1.8
			h-2.1l1.1-1.8l-1.1-1.8h2.1l1.1-1.8l1.1,1.8h2.1l-1.1,1.8L-17.1-444.9z"/>
		<path id="path2792-5" inkscape:connector-curvature="0" class="st0" d="M-49.6-439.5c-0.4,0-0.8,0.2-1.1,0.5
			c-0.1,0.1-0.2,0.3-0.2,0.4l-0.1,0.1l0-0.1c0-0.1-0.1-0.3-0.2-0.4c-0.3-0.3-0.7-0.5-1.1-0.5c-0.8,0-1.4,0.6-1.4,1.4
			c0,0.2,0,0.3,0.1,0.5l0,0v0.1c0,0.1,0.2,0.5,0.6,1.1c0.4,0.6,1,1.5,2,2.4c1-0.9,1.6-1.8,2-2.4c0.4-0.7,0.6-1.1,0.6-1.1v-0.1l0,0
			c0.1-0.2,0.1-0.3,0.1-0.5C-48.2-438.8-48.9-439.5-49.6-439.5L-49.6-439.5z"/>
		<path id="path2794-3" inkscape:connector-curvature="0" class="st0" d="M-44.3-447.7c-0.4,0-0.8,0.2-1.1,0.5
			c-0.1,0.1-0.2,0.3-0.2,0.4l0,0.1l0-0.1c-0.1-0.1-0.1-0.3-0.2-0.4c-0.3-0.3-0.7-0.5-1.1-0.5c-0.8,0-1.4,0.6-1.4,1.4
			c0,0.2,0,0.3,0.1,0.5l0,0l0,0.1c0,0.1,0.2,0.5,0.6,1.1c0.4,0.6,1,1.5,2,2.4c1-0.9,1.6-1.8,2-2.4c0.4-0.7,0.6-1.1,0.6-1.1v-0.1l0,0
			c0.1-0.2,0.1-0.3,0.1-0.5C-42.9-447.1-43.5-447.7-44.3-447.7L-44.3-447.7z"/>
		<path id="path2796-5" inkscape:connector-curvature="0" class="st0" d="M-37.9-431.1h16.3l-16.3-13.5V-431.1z M-36.8-437.5h2.1
			l1.1-1.8l1.1,1.8h2.1l-1.1,1.8l1.1,1.8h-2.1l-1.1,1.8l-1.1-1.8h-2.1l1.1-1.8L-36.8-437.5z"/>
		<path id="path2798-6" inkscape:connector-curvature="0" class="st0" d="M-76.1-488.9c0,0,6.2,4.5,4,9.6c0,0,2.9-0.2,3.3-3.8
			c0,0,0.5,0.6,2,0.5c0,0-0.1-1.2-0.9-2.5c0,0,2,1.4,1.6,5.1c0,0,2.9-0.3,3.4-2.4c0,0,0.5,1.3,1.4,2c0,0,3.8-4.4,0.2-10.4
			c0,0-0.1-0.7,0.7-0.2c0,0,1.2,2,4,1.9c0,0-1-4.3-4.7-4.4c0,0-0.7-0.1-2.3,0.2c0,0-6,1.2-9.1-3c0,0-1-2,0.9-2.8
			c0,0,1.3-0.4,2.3,0.9c0,0,2.5,2.8,3.1,2.4c0,0,0.5-1.3-0.1-2.7c0,0,4.2-0.4,1.8-5.7c0,0-0.7,0.6-1.8,0.7c0,0-1.4,0.2-1.5,1.7
			c0,0-0.3,0.5-0.6-0.1c0,0-2.6-4.1,0.6-6.7c0,0,5-4,10.2,1.8c0,0-1.9,1.9-1.9,4.3c0,0,4.7-0.4,8,2.4l0.4-1.4
			c-1.3-1-3.6-2.4-6.6-2.8c0,0,3.2-0.8,6.8,2l0.4-1.2c-0.2-0.4-0.4-0.9-0.8-1.4l-1.8-1.8l0.3-0.4c-1.7-2.1-4.1-4.2-7.7-5.5
			c-0.2-0.1-0.3-0.1-0.5-0.2c0,0,0,0-0.1,0c-0.2,0-0.5-0.1-0.9-0.2c-0.3-0.1-0.7-0.1-1.1-0.2c-2.8-0.4-7.7-0.4-12,3
			c0,0-6.5,4.9-5.3,12.6C-80.6-497.3-80-492-76.1-488.9L-76.1-488.9z M-70.7-508.2c0,0-1.9,4.8,1.7,8.1
			C-69-500.1-74.4-502.4-70.7-508.2z M-73.1-509.1c0,0-4.9,7.4-0.2,13.7c0,0,1.8,2.2,4.5,3.5c0,0,9.3,4.5,4.8,9.2c0,0,1.3-3.3-2.1-6
			c0,0-1-1-3.6-2.4C-69.7-491.1-82.3-497-73.1-509.1z M-77.1-505.5c0,0-3.4,7.8,4.5,14.7c0,0,4.4,3.5,2.8,7.2c0,0-0.3-3.9-3.9-6.7
			C-73.8-490.3-81.9-496.5-77.1-505.5z"/>
		<path id="path2800-2" inkscape:connector-curvature="0" class="st0" d="M-84.9-449.9c0-0.8,0.2-1,0.2-1c0.9-1.2,2.6-0.7,2.6-0.7
			c-0.6-1.3-2.4-2.1-2.4-2.1c-3.8-2.1-2.7-5.9-2.7-5.9c0.4-0.3,0.5,0.1,0.5,0.1c0.2,2,3.5,3.3,3.5,3.3c0-1.1,0.7-1.4,0.7-1.4
			c4.7,1.4,5-1.9,5-1.9c-6.8-1.8-6-6.2-6-6.2c-1.3-0.2-3.1-1.7-3.1-1.7c-1.4,2.8-4.1,1.6-4.1,1.6c-1-0.4-1.9-0.4-1.9-0.4
			c-2.5,5.4,0.9,11.3,0.9,11.3c0.5,1.2,0.6,1.4,0.6,1.4c1.1,4.4-1.5,8.1-1.5,8.1c2.5,0.7,4.7,0.1,4.7,0.1
			C-85-446.6-84.9-449.9-84.9-449.9L-84.9-449.9z M-86.7-465.7c0,0,0.3,5.2,5.5,6.9C-81.2-458.8-87.4-458.8-86.7-465.7z
			 M-89.8-464.7c0,0-2.9,4.3,1.4,8.7c0,0,4,3.8,1.2,6.7c0,0,1.1-2.9-2-6C-89.2-455.3-94-459.6-89.8-464.7z"/>
		<path id="path2802-9" inkscape:connector-curvature="0" class="st0" d="M-89.8-466.1c2,0.4,3.1-2.6,3.1-2.6
			c0.6,1.6,3.2,2.4,3.2,2.4c1.9-1.1,2.2-3.9,2.2-3.9c0.3,2.1,2.5,2.1,2.5,2.1c2.4,0,3.1,0.7,3.1,0.7c1.7-3.1-0.1-4.9-0.1-4.9
			c3.5-0.3,3.8-3.3,3.8-3.3c-4.1-1.3-2.9-6.2-2.9-6.2c-3.1-2.8-1.1-5.9-1.1-5.9c-0.7-0.6-1.9-2-1.9-2c-3.7,1.1-5.3,2.9-5.3,2.9
			c-3.4,3.5-4.9,11.3-4.9,11.3c-1.4,5.6-3.6,8-3.6,8c1.9-3.1,3-7.8,3-7.8c1.2-5.4,2.6-9.1,2.6-9.1c-5.3,4.7-6.1,10.8-6.1,10.8
			c-0.7,4.3-2.1,7.2-2.1,7.2C-91.8-467.3-89.8-466.1-89.8-466.1L-89.8-466.1z M-77.3-487.1c-0.9,4.2,0.6,7,0.6,7c3,5.5,1.2,6,1.2,6
			c0.2-1.8-1.3-3.5-1.3-3.5C-80.2-481.7-77.3-487.1-77.3-487.1L-77.3-487.1z M-78.7-488.4c-1.9,6.7,0.1,11.3,0.1,11.3
			c1.5,5.8-0.2,8.2-0.2,8.2c1.1-4.1-0.3-8-0.3-8C-81.7-485-78.7-488.4-78.7-488.4z M-84-478.4c-0.3-6.9,3.1-9.4,3.1-9.4
			c-3,3.6-2.6,9.5-2.6,9.5c0.3,9-2.1,9.9-2.1,9.9C-83.5-471.6-84-478.4-84-478.4z"/>
		<path id="path2806-1" inkscape:connector-curvature="0" class="st0" d="M-74.5-437.7c-0.1-0.2-0.2-0.3-0.3-0.5l-2.3,1.4
			c0.1,0.2,0.3,0.3,0.4,0.5L-74.5-437.7z"/>
		<path id="path2808-2" inkscape:connector-curvature="0" class="st0" d="M-73.1-435.9c-0.1-0.2-0.3-0.3-0.4-0.5l-1.9,1.4
			c0.1,0.2,0.3,0.3,0.4,0.5L-73.1-435.9z"/>
		<path id="path2810-7" inkscape:connector-curvature="0" class="st0" d="M-75.7-438.4c-0.1,0-0.2,0-0.3-0.1l-1.7,1
			c0.1,0.1,0.1,0.1,0.2,0.2L-75.7-438.4z"/>
		<path id="path2812-0" inkscape:connector-curvature="0" class="st0" d="M-78.1-437.9l1.3-0.8c-1-0.4-2-1-3.1-1.8
			C-79.5-439.8-78.8-438.9-78.1-437.9z"/>
		<path id="path2814-9" inkscape:connector-curvature="0" class="st0" d="M-73.9-436.8c-0.1-0.1-0.2-0.3-0.3-0.4l-2.1,1.4
			c0.1,0.1,0.3,0.3,0.4,0.5L-73.9-436.8z"/>
		<path id="path2816-3" inkscape:connector-curvature="0" class="st0" d="M-18.3-523.8c-2.4,0.5-4.2-0.5-4.2-0.5
			c-1.4-0.5-2.3,0.2-2.3,0.2c-1,1.3-2,1.6-2,1.6c-1,1.9-2.7,2.7-2.7,2.7c-0.2,1.2-1.7,2.1-1.7,2.1c-0.1,0.4-0.5,1.1-0.5,1.1
			c0.7-0.5,3.8-1.7,3.8-1.7c3.3-2.5,5.8-2.7,5.8-2.7c-2.6,0.9-3.6,2.2-3.6,2.2c8.7-0.5,11.9,3.8,11.9,3.8c-0.6-0.6-3.3-1.8-3.3-1.8
			c0.4,0.5,0.4,1.8,0.4,1.8c-0.7-1.6-3.2-2.5-3.2-2.5c0.3,0.4,0.3,1.3,0.3,1.3c-3.5-4.3-11.8,0.1-13.5,1.1c0.8,0.3,1.5,0.7,2.2,1.2
			c0.7,0,1.4-0.2,1.4-0.2c1.3-0.4,2.1-2,2.1-2c2.9,2.6,5.2-0.2,5.2-0.2c1.8,3.7,5.1,1.9,5.1,1.9c0,0.3,0.1,0.7,0.3,1
			c0.2-0.1,0.4-0.1,0.7-0.1c0,0,2.3-0.5,5.4-0.1c-0.3-1.7-2.8-3.6-2.8-3.6c0.3-0.2,1.9-0.4,1.9-0.4c-1.2-2.3-3.3-2.7-3.3-2.7
			c0.6-0.3,1.5-0.2,1.5-0.2c-0.2-0.7-1.6-1-1.6-1C-17.1-521.9-18.3-523.8-18.3-523.8L-18.3-523.8z"/>
		<path id="path2818-6" inkscape:connector-curvature="0" class="st0" d="M-33.8-502.7c-7.5-1.4-14.2-0.2-14.2-0.2l-0.7,2.5
			c8.7-0.7,16.5,0.4,16.5,0.4C-32.9-500.8-33.8-502.7-33.8-502.7L-33.8-502.7z"/>
		<path id="path2820-0" inkscape:connector-curvature="0" class="st0" d="M-28.7-507.8c-0.6,0-1,0.6-1,1.2c0,0.7,0.5,1.2,1,1.2
			c0.6,0,1-0.5,1-1.2C-27.7-507.2-28.2-507.8-28.7-507.8z"/>
		<path id="path2822-6" inkscape:connector-curvature="0" class="st0" d="M-28.4-502.4c-0.3,0-0.6,0-0.8,0c-0.9-0.1-1.4-0.6-1.4-0.6
			c0.2,1.2,1,2.6,1.8,3.7c0.2,0.3,0.4,0.5,0.6,0.7l0,0.1c0,0,0,0,0,0c0.1,0.2,0.3,0.3,0.4,0.5c0.3,0.4,0.5,0.6,0.5,0.6
			c-0.1-0.2-0.2-0.5-0.3-0.8c-0.1-0.2-0.1-0.5-0.2-0.7c-0.1-0.6-0.2-1.2-0.3-1.6c0-0.3-0.1-0.5-0.1-0.5c0-0.2,0-0.3,0-0.5
			c0-0.6,0.1-0.9,0.1-0.9C-28.1-502.4-28.3-502.4-28.4-502.4L-28.4-502.4z"/>
		<path id="path2824-2" inkscape:connector-curvature="0" class="st0" d="M-28.5-493.8c0,0,0-1.2-0.8-1c0,0-1,2.3-0.5,3.2
			C-29.8-491.6-28.6-492-28.5-493.8z"/>
		<path id="path2826-6" inkscape:connector-curvature="0" class="st0" d="M-26.3-492.1c0.8-2.8-1.4-4.6-1.4-4.6
			c-4-4.1-4.2-7.9-4.2-7.9c-5-1.8-16.1-1.1-16.1-1.1l-1.4-4.9l-2.5,3.8l0,0.1l0.5,0.6c0.8,1.1,1.3,2.1,1.7,2.9
			c-0.1,0.3-0.2,0.7-0.3,1.1c-0.1,0.2-0.1,0.4-0.2,0.6c-0.1,0.3-0.2,0.5-0.3,0.8c-0.1,0.5-0.3,1-0.5,1.5c-0.1,0.2-0.1,0.5-0.2,0.7
			c-0.7,2.1-1.3,3.9-1.3,3.9c1.7,1.5,3.4,1.3,3.4,1.3l-0.1-0.9c-1.3-0.3-2-1-2-1l0.7-2.4l1.3-4.2l0.5-1.7c9.5-1.6,15.3,0.2,15.3,0.2
			c1,2.4,4.4,7.2,4.4,7.2c1.6,1.4,1.4,2.4,1.4,2.4c0.3,2.4-2.2,3.4-2.2,3.4l0.3,1.4C-26.6-490.3-26.3-492.1-26.3-492.1L-26.3-492.1z
			"/>
		<path id="path2828-1" inkscape:connector-curvature="0" class="st0" d="M-28.2-481.4c-0.2-0.8-2.6-9.7-2.6-9.7
			c-0.2,0.8-1.9,3.3-1.9,3.3c0.1,0.3,1.4,4.9,1.4,4.9C-29.3-482.7-28.2-481.4-28.2-481.4z"/>
		<path id="path2830-8" inkscape:connector-curvature="0" class="st0" d="M-28.4-480.2c-0.4-1.7-3.6-2.1-3.6-2.1l-1.3-4.6
			c-3.8,5.1-8.9,2.8-8.9,2.8v2.3c1.7,1,3.7,0.8,3.7,0.8c-2,1.3-4-0.3-4-0.3c-0.9,0.1-3.1,1.4-3.1,1.4c1.5,1.4,2.6,0.9,2.6,0.9
			c-1.1-0.1-1.6-0.9-1.6-0.9c1.1,0.1,2.3-0.2,2.3-0.2c0.2,0.5,0.2,1.4,0.2,1.4h0.8c3.6-0.2,5.6-2.5,5.6-2.5c0.8,1.5,1.9,2.2,2.8,2.5
			h3.2C-28.1-479.3-28.4-480.2-28.4-480.2L-28.4-480.2z"/>
		<path id="path2832-7" inkscape:connector-curvature="0" class="st0" d="M-26-506.5C-26-506.5-26-506.5-26-506.5c0-0.4,0-0.7-0.1-1
			c-0.3-1.4-1.4-2.3-2.6-2.3c-1.5,0-2.7,1.5-2.7,3.3c0,1.8,1.2,3.2,2.6,3.3c0,0,0,0,0.1,0c0.3,0,0.6-0.1,0.8-0.2
			C-26.8-503.9-26.1-505-26-506.5L-26-506.5z M-28.7-504.3c-1,0-1.9-1-1.9-2.2c0-1.2,0.8-2.2,1.9-2.2c1,0,1.9,1,1.9,2.2
			C-26.9-505.3-27.7-504.3-28.7-504.3z"/>
		<path id="path2834-9" inkscape:connector-curvature="0" class="st0" d="M-39.2-484.4c6.4-1,9.4-11.2,9.4-11.2
			c-1-0.8-2.8-3.6-2.8-3.6c-8.7-1.2-16.5-0.2-16.5-0.2C-47.7-483-39.2-484.4-39.2-484.4L-39.2-484.4z M-35.2-498.8
			c0.7,0,1.3,0.1,1.9,0.2c0,0.5-0.1,1.7-0.3,3.2c-0.4-0.1-1.1-0.1-1.9-0.2C-35.3-497-35.3-498.2-35.2-498.8L-35.2-498.8z
			 M-35.7-494.6c0.7,0.1,1.3,0.2,1.8,0.3c-0.2,1.1-0.5,2.2-1,3.4c-0.4-0.1-0.9-0.1-1.5-0.2C-36-492.4-35.8-493.6-35.7-494.6
			L-35.7-494.6z M-35.3-490c-0.7,1.4-1.7,2.8-3,3.7c0.7-1.2,1.2-2.6,1.6-3.9C-36.1-490.2-35.6-490.1-35.3-490L-35.3-490z
			 M-39.7-494.9c0.7,0,1.3,0,1.9,0.1c-0.1,1.1-0.2,2.3-0.4,3.5c-0.5,0-1,0-1.6,0C-39.7-492.6-39.7-493.8-39.7-494.9L-39.7-494.9z
			 M-37.7-498.9c0,0.6,0.1,1.8,0,3.2c-0.6,0-1.3,0-2,0c0-1.4-0.1-2.6-0.1-3.2C-39.1-498.9-38.4-498.9-37.7-498.9L-37.7-498.9z
			 M-39.8-490.5c0.5,0,1,0,1.4,0.1c-0.4,1.7-1.1,3.3-2,4.5C-40.1-487.4-39.9-489-39.8-490.5L-39.8-490.5z M-41.3-486
			c-1-1.1-1.7-2.7-2.1-4.4c0.5,0,1-0.1,1.5-0.1C-41.8-489-41.6-487.5-41.3-486L-41.3-486z M-43.6-491.3c-0.2-1.2-0.4-2.4-0.4-3.5
			c0.7-0.1,1.3-0.1,2-0.1c0,1.1,0,2.3,0.1,3.5C-42.5-491.3-43-491.3-43.6-491.3z M-44.1-498.8c0.7,0,1.4,0,2.2-0.1
			c0,0.6-0.1,1.8-0.1,3.2c-0.6,0-1.3,0.1-2,0.1C-44.2-497-44.1-498.2-44.1-498.8L-44.1-498.8z M-42.8-486.2
			c-1.4-0.8-2.4-2.3-3.1-3.9c0.4-0.1,0.8-0.1,1.2-0.2C-44.2-488.7-43.6-487.2-42.8-486.2L-42.8-486.2z M-44.9-491.2
			c-0.5,0-0.9,0.1-1.4,0.2c-0.4-1.1-0.8-2.3-1-3.3c0.6-0.1,1.2-0.2,1.7-0.2C-45.4-493.5-45.2-492.3-44.9-491.2L-44.9-491.2z
			 M-45.7-495.5c-0.6,0-1.2,0.1-1.8,0.1c-0.3-1.5-0.4-2.7-0.4-3.3c0.4,0,1.1-0.1,2-0.1C-46-498.2-45.9-497-45.7-495.5L-45.7-495.5z"
			/>
		<path id="path2836-2" inkscape:connector-curvature="0" class="st0" d="M-48.5-510.9l1.1,4.3c7-0.8,15.1,0.9,15.1,0.9
			c-0.2-2.6,1-3.9,1-3.9C-37.1-511.2-48.5-510.9-48.5-510.9L-48.5-510.9z"/>
		<path id="path2838-0" inkscape:connector-curvature="0" class="st0" d="M-48.6-511.6c12-0.4,17.9,1.5,17.9,1.5
			c0.5-0.5,0.9-0.5,0.9-0.5c-7-3.3-19.1-2.5-19.1-2.5L-48.6-511.6z"/>
		<path id="path2840-2" inkscape:connector-curvature="0" class="st0" d="M-46.5-513.8c12.9-0.1,17.2,2.7,17.2,2.7
			c-1.7-3.3-7.7-4.5-7.7-4.5C-43.5-516.7-46.5-513.8-46.5-513.8z"/>
		<path id="path2844-3" inkscape:connector-curvature="0" class="st0" d="M-33.4-515.2c2.2-1.5,1.8-5.5,1.8-5.5
			c0.6,0.6,0.5,2.5,0.5,2.5c2-1.6,1-4.9,1-4.9c1,0.9,0.7,2.6,0.7,2.6c2.9-1.6,2.5-5.2,2.5-5.2c0.5,0.9,0.3,2.4,0.3,2.4
			c1.8-1.3,1.7-4.1,1.7-4.1c0.6,1.1,0.2,2.7,0.2,2.7c1.6-0.7,2.5,0,2.5,0c1.9,0.8,4.1,0.3,4.1,0.3c0.5,1.6,3.5,2.5,3.5,2.5
			c0.7-3.4-1.1-4.5-1.1-4.5c0.1,0.5-0.4,2.1-0.4,2.1c0.3-1.9-0.7-3.6-0.7-3.6c-2-2.9-4.4-2.3-4.4-2.3c0.9,0.5,1.1,1.4,1.1,1.4
			c0.3,0.9,1.3,1.6,1.3,1.6c-1.7-0.1-3.5-2.8-3.5-2.8c-1.4-1.5-3.4-1.2-3.4-1.2c-2.9,0.2-5.3,3.6-5.3,3.6
			c-3.2,4.2-5.8,10.3-6.2,11.4C-36-516.1-34.7-515.8-33.4-515.2z"/>
		<path id="path2846-7" inkscape:connector-curvature="0" class="st0" d="M-62.6-513.5c0.7,0.1,1.4,0.3,2,0.5
			c0.5-0.5,0.6-1.3,0.6-1.3c3.9,1.5,5.1-1.9,5.1-1.9c2.6,2.9,5.2,0.2,5.2,0.2c0.4,1.2,1.9,1.9,2.5,2.1c0.3-0.3,0.8-0.8,1.7-1.2
			c-4-2.7-8.9-2.9-8.9-2.9c-2.9-0.1-4.4,2-4.4,2c0-0.5,0.5-1.3,0.5-1.3c-1.8,0.1-3.2,2.3-3.2,2.3c-0.1-0.6,0.5-1.6,0.5-1.6
			c-1,0.2-3.6,1.6-3.6,1.6c5.4-4.9,12.1-3.7,12.1-3.7c-0.8-1.3-3.7-2-3.7-2c3.5,0.3,5.9,2.7,5.9,2.7c1.5,0.5,3.6,1.6,3.6,1.6
			c0-0.5-0.5-1-0.5-1c-1.2-0.7-1.9-2.2-1.9-2.2c-1.4-0.7-2.5-2.7-2.5-2.7c-0.7,0-1.4-0.8-1.4-0.8c-0.2-0.4-0.5-0.7-0.5-0.7
			c-1.6-0.9-2.7-0.1-2.7-0.1c-2.2,0.8-3.9,0.4-3.9,0.4c-1.1,2.1-3.7,2.4-3.7,2.4c-0.9,0.2-1.2,1-1.2,1c0.7-0.1,1.5,0,1.5,0
			c0.6,0.1-0.1,0.3-0.1,0.3c-2.3,0.2-2.5,1.3-2.5,1.3c-0.4,0.8-0.8,1.3-0.8,1.3c0.3,0,2.2,0.1,2.2,0.1c-2.2,1.3-2.9,3.2-3.1,3.7
			C-64.8-514-62.6-513.5-62.6-513.5L-62.6-513.5z"/>
		<path id="path2848-5" inkscape:connector-curvature="0" class="st0" d="M-40.6-533.9c-0.3,4.4,2.5,4.4,2.5,4.4
			c-0.4-0.7,0-1.8,0-1.8c2.7,0.9,4.7,3.1,4.7,3.1c2.1-0.9,1-2.7,1-2.7c0.5-0.3,1.6,0,1.6,0c0.6-2-1-3.3-1-3.3
			c0.6-0.5,1.5-0.2,1.5-0.2c0.1-1-1.7-2.2-1.8-2.4c-0.1-0.4,1.4-0.1,1.4-0.1c-0.1-1.6-1.6-2.3-1.6-2.3c-1.7-0.5-2.7,0.4-2.7,0.4
			c1.4,3.4,0.4,5.2,0.4,5.2c0.8-5-2.9-6.7-2.9-6.7c-2-0.6-3.1,0.3-3.1,0.3c-2.9,2.2-0.9,7-0.9,7C-41.3-533.2-40.6-533.9-40.6-533.9
			L-40.6-533.9z"/>
		<path id="path2850-9" inkscape:connector-curvature="0" class="st0" d="M-43.7-522.6c1.3,2,2.8,5.6,3,6.1c0.6,0,1.2,0,1.8,0
			c0,0,0.1,0,0.2,0c0.6-2.3-1.1-5-1.1-5c0.6,0.3,1.3,1.5,1.3,1.5c0.2,0.3,0.2-0.2,0.2-0.2c0.5-2.1-0.7-4.6-0.7-4.6
			c0.4,0.4,1.2,2.1,1.2,2.1c0.3,0.5,0.4,0,0.4,0c0.5-1.9-0.4-4.4-0.4-4.4c0.4,0.3,1,1.9,1,1.9c0.1,0.6,0.3,0.3,0.3,0.3
			c0.5-0.5,1.1-0.8,1.1-0.8c-3.3,4.6-0.3,2.8-0.3,2.8c-2.2,1.5-2,3.1-2,3.1c-0.1,1.6-0.5,3-0.6,3.4c0.2,0,0.4,0,0.7,0.1
			c0.5-1.5,3.9-7.7,3.9-7.7l0.1-3.5c-1.3-1.7-4.2-3.1-4.2-3.1c-0.2,0.3,0.3,1.4,0.3,1.4c-3.3,1.2-3.6-3.1-3.6-3.1l-0.3,0.9
			c-0.7-1-1-3.7-1-3.7c-2.5,0.9-1.3,6.3-1.3,6.3C-43-524-43.7-522.6-43.7-522.6L-43.7-522.6z"/>
		<path id="path2852-2" inkscape:connector-curvature="0" class="st0" d="M-60.3-524.4c2,0.7,4.3-0.3,4.3-0.3
			c1.6-0.6,2.5,0.1,2.5,0.1c-0.5-1.1,0-2.6,0-2.6c-0.1,3.3,1.9,4,1.9,4c-0.7-1.6,0.3-2.4,0.3-2.4c-0.4,3.6,2.6,5.2,2.6,5.2
			c-0.2-2.2,0.7-2.5,0.7-2.5c-1.3,3.3,1.1,4.8,1.1,4.8c-0.3-1.7,0.4-2.4,0.4-2.4c-0.4,2.7,0.9,4.6,1.4,5.2c1-0.5,2.3-0.9,3.9-1.1
			c-1.1-3.5-4.8-9.1-4.8-9.1c-3.2-5.5-6.5-5.5-6.5-5.5c-2.7-0.3-3.7,1.1-3.7,1.1c-2.4,3.4-3.4,2.7-3.4,2.7c1.1-0.3,1.4-1.3,1.4-1.3
			c0.1-0.4,0.9-1.7,0.9-1.7c-5.4-0.2-5.1,6.4-5.1,6.4c-0.1-0.5-0.2-2.6-0.2-2.6c-2,0.9-1.3,4.7-1.3,4.7
			C-61.6-521.9-60.3-524.4-60.3-524.4L-60.3-524.4z"/>
		<path id="path2854-2" inkscape:connector-curvature="0" class="st0" d="M-72.2-434.9c-0.2-0.2-0.4-0.4-0.5-0.6l-1.8,1.4
			c0.2,0.2,0.4,0.3,0.6,0.5L-72.2-434.9z"/>
		<path id="path2856-8" inkscape:connector-curvature="0" class="st0" d="M-39-464.2c-0.1,0.1-0.1,0.2-0.1,0.2l-0.1,0.2l-0.1-0.2
			c0-0.1-0.1-0.2-0.1-0.2c-0.2-0.2-0.4-0.3-0.6-0.3c-0.5,0-0.8,0.4-0.8,0.9c0,0.1,0,0.2,0.1,0.3h0l0,0.1c0,0.1,0.2,0.3,0.4,0.7
			c0.2,0.4,0.6,1,1.3,1.5c0.6-0.6,1-1.1,1.3-1.5c0.2-0.4,0.4-0.6,0.4-0.7v0l0,0c0-0.1,0.1-0.2,0.1-0.3c0-0.5-0.4-0.9-0.9-0.9
			C-38.6-464.5-38.8-464.4-39-464.2L-39-464.2z"/>
		<path id="path2858-9" inkscape:connector-curvature="0" class="st0" d="M-41.6-453.3h4.7c-0.6-0.4-1.5-1-1.9-1.5
			c0,0-0.3-0.5,0.1-1.1c0.1-0.2,0.2-0.9,0-1.3c-0.1-0.2-0.3-0.3-0.6-0.4c-0.3,0.1-0.5,0.2-0.6,0.4c-0.2,0.4-0.1,1,0,1.3
			c0.4,0.5,0.2,1,0.2,1C-40.1-454.3-41-453.7-41.6-453.3L-41.6-453.3z"/>
		<path id="path2860-7" inkscape:connector-curvature="0" class="st0" d="M-16.6-472.1h-1.3c-0.5,0.5-1.8,1.5-2.8,2
			c0.2,0.2,0.6,0.5,1.4,0.5l1.1,0l-0.9,0.6c0,0-0.6,0.4-1.6,0.5c0.2,0.3,0.4,0.6,0.7,0.7l0.5,0.1l-0.3,0.4c0,0-0.5,0.5-1.8,0.6
			c0.2,0.3,0.5,0.6,0.8,0.8l0.5,0.3l-0.5,0.3c0,0-0.9,0.4-1.9,0.4c-0.1,0-0.2,0-0.3,0c0.2,0.3,0.5,0.6,0.7,0.8l0.4,0.3l-0.5,0.2
			c0,0-1.1,0.4-2.2,0.4c-0.1,0-0.1,0-0.2,0c0.2,0.3,0.4,0.6,0.5,0.7l0.3,0.3l-0.3,0.2c-0.1,0-0.7,0.5-1.4,0.5c-0.2,0-0.4,0-0.6-0.1
			c0,0.4,0,0.7,0,0.9l0.1,0.3l-0.3,0.1c0,0-0.2,0.1-0.5,0.1c-0.3,0-0.7,0-1-0.3c-0.1,0.3-0.1,0.6,0,0.7l0.1,0.5l-0.5-0.1
			c-0.1,0-0.7-0.1-1.2-0.5c-0.2,0.3-0.4,0.9-0.3,1.7l0.1,0.6l-0.5-0.3c-0.1,0-0.6-0.3-1-0.7c-0.2,0.2-0.4,0.6-0.4,0.9l0,0.6
			l-0.8-0.6l-0.4,0.8l-0.3-0.2c0,0-0.1-0.1-0.3-0.3c0,0.2,0,0.3,0,0.4l0.1,1.2l-0.7-1c-0.1-0.1-1.1-1.6-2.2-1.7
			c-0.1,0.4-0.1,0.7-0.2,1c0.1,0.3,0.5,1.3,0,2.3c0.2,0.4,0.7,1.3,0.7,1.9h19.2L-16.6-472.1L-16.6-472.1z"/>
		<path id="path2862-3" inkscape:connector-curvature="0" class="st0" d="M-32.9-470.5l-0.5,0c-0.5,0-2.8,0.1-3.3,1.6l0,0.1
			c0,0-0.4,0.7,0.1,2.6c0.3-0.6,0.7-1.3,1.4-2.2C-34.6-469.1-33.9-469.8-32.9-470.5L-32.9-470.5z"/>
		<path id="path2864-6" inkscape:connector-curvature="0" class="st0" d="M-33.1-471l0.2,0.4c0.8-0.6,1.9-1.2,3.1-1.6h-4.7
			C-33.9-471.8-33.3-471.5-33.1-471z"/>
		<path id="path2866-1" inkscape:connector-curvature="0" class="st0" d="M-40.7-471.5c0.3,0.2,1,0.7,1.5,1.3
			c0.5-0.6,1.2-1.1,1.5-1.3c-0.1-0.1-0.3-0.4-0.6-0.6h-1.8C-40.4-471.9-40.6-471.6-40.7-471.5z"/>
		<path id="path2868-2" inkscape:connector-curvature="0" class="st0" d="M-48.7-472.1c1.2,0.5,2.3,1,3.1,1.6l0.2-0.4
			c0.3-0.5,0.8-0.9,1.4-1.2L-48.7-472.1L-48.7-472.1z"/>
		<path id="path2870-9" inkscape:connector-curvature="0" class="st0" d="M-61.9-472.1v18.8h19.3c0-0.6,0.4-1.5,0.7-1.9
			c-0.5-1.1-0.2-2,0-2.3c-0.1-0.3-0.1-0.6-0.2-1c-1.1,0.1-2.2,1.6-2.2,1.7l-0.7,1l0.1-1.2c0-0.1,0-0.2,0-0.4
			c-0.1,0.2-0.3,0.3-0.3,0.3l-0.3,0.2l-0.4-0.8l-0.8,0.6l0-0.6c0-0.3-0.2-0.7-0.4-0.9c-0.4,0.4-0.9,0.7-1,0.7l-0.5,0.3l0.1-0.6
			c0.1-0.8-0.1-1.3-0.3-1.7c-0.5,0.4-1.1,0.5-1.2,0.5l-0.5,0.1l0.1-0.5c0-0.2,0-0.4,0-0.7c-0.4,0.2-0.8,0.3-1,0.3
			c-0.3,0-0.5,0-0.5-0.1l-0.3-0.1l0.1-0.3c0.1-0.2,0.1-0.5,0-0.9c-0.2,0.1-0.4,0.1-0.6,0.1c-0.8,0-1.4-0.4-1.4-0.5l-0.3-0.2l0.3-0.3
			c0.1-0.1,0.3-0.4,0.5-0.7c-0.1,0-0.1,0-0.2,0c-1.1,0-2.1-0.4-2.2-0.4l-0.5-0.2l0.4-0.3c0.3-0.2,0.5-0.5,0.7-0.8
			c-0.1,0-0.2,0-0.3,0c-1,0-1.8-0.4-1.9-0.4l-0.5-0.3l0.5-0.3c0.3-0.2,0.6-0.6,0.8-0.8c-1.2-0.1-1.7-0.6-1.7-0.6l-0.3-0.4l0.5-0.1
			c0.3-0.1,0.6-0.4,0.8-0.7c-0.9-0.1-1.6-0.5-1.6-0.5l-0.9-0.6l1.1,0c0,0,0.1,0,0.1,0l0,0c0.7,0,1.1-0.3,1.3-0.5
			c-1-0.5-2.3-1.6-2.8-2.1L-61.9-472.1z"/>
		<path id="path2872-3" inkscape:connector-curvature="0" class="st0" d="M-43.2-468.4c0.7,0.8,1.2,1.6,1.4,2.2
			c0.5-1.9,0.1-2.6,0.1-2.6l0-0.1c-0.5-1.5-2.8-1.6-3.3-1.6l-0.6,0C-44.5-469.8-43.8-469.1-43.2-468.4L-43.2-468.4z"/>
		<path id="path2876-1" inkscape:connector-curvature="0" class="st0" d="M-27-471.4c0.2,0,0.4,0,0.6,0c1.5,0,4.2-0.2,4.2-0.2l0,0.2
			c-3,0.8-6.4,0.9-6.7,0.9c-0.8,0.3-1.5,0.9-1.9,1.1c0,0,0.1,0,0.1,0c0.7,0,1.9-0.1,1.9-0.1l0.6-0.1l-0.6,0.3
			c-1.1,0.5-2.6,0.6-2.7,0.6c-0.6,0.2-0.9,0.6-1.1,0.8c0.1,0,0.3,0,0.4,0c0.8,0,1.9-0.2,1.9-0.2l0.4-0.1l-0.3,0.3
			c-0.9,0.7-2.9,0.8-3.2,0.8c-0.4,0.3-0.8,0.7-0.9,1c0,0,0,0,0,0c0.7,0,2.3-0.2,2.3-0.2l0.4-0.1l-0.4,0.2c-0.8,0.6-2.5,0.7-2.6,0.7
			c-1,0.1-1.3,0.8-1.4,1c0,0,0.1,0,0.2,0c0.8,0,2.5-0.2,2.5-0.2l0.6-0.1l-0.5,0.3c-1,0.5-1.8,0.6-2.4,0.6c-0.3,0-0.5,0-0.7-0.1
			c0.2,1.1,0.3,2.8,0,4.9c0.9,0.1,1.7,0.9,2.2,1.4c0.1-0.3,0.1-0.5,0.1-0.5l0.3-0.7l0.3,0.7c0.1,0.2,0.2,0.3,0.2,0.4l0.4-0.7
			l0.5,0.3c0.2-0.6,0.7-1.1,0.7-1.1l0.3-0.3l0.2,0.3c0.1,0.2,0.3,0.4,0.5,0.5c0-1.1,0.6-1.8,0.6-1.8l0.2-0.3l0.2,0.3
			c0.2,0.2,0.5,0.4,0.7,0.5c0-0.5,0.2-1,0.2-1l0.2-0.4l0.3,0.3c0.3,0.3,0.8,0.4,1.1,0.4c0-0.5,0.1-1.1,0.1-1.2l0.1-0.4l0.4,0.3
			c0.2,0.1,0.4,0.2,0.6,0.2c0.3,0,0.6-0.1,0.8-0.2c-0.3-0.4-0.6-0.9-0.7-1.1l-0.4-0.7l0.7,0.2c0.2,0.1,0.4,0.1,0.7,0.1
			c0.5,0,1.1-0.1,1.5-0.2c-0.5-0.5-0.9-1.1-1-1.2l-0.6-0.9l0.9,0.4c0.3,0.1,0.6,0.2,1,0.2c0.4,0,0.8-0.1,1.1-0.2
			c-0.5-0.5-0.8-1.1-0.9-1.2l-0.3-0.5l0.5,0c0.7,0,1.2-0.1,1.5-0.2c-0.5-0.4-0.8-1.1-0.8-1.2l-0.2-0.5l0.5,0c0.3,0,0.5,0,0.8-0.1
			c-0.7-0.3-1-0.9-1-0.9l-0.1-0.3l0.3-0.1c0.7-0.3,1.8-1.1,2.5-1.6h-6.4C-25.9-472-26.6-471.6-27-471.4L-27-471.4z"/>
		<path id="path2878-9" inkscape:connector-curvature="0" class="st0" d="M-36.3-465.3c0,0.1,0.1,0.3,0.1,0.5
			c2.6-4.2,7.3-6.5,9.4-7.4h-0.9C-34.3-470.4-36.1-465.9-36.3-465.3z"/>
		<path id="path2880-4" inkscape:connector-curvature="0" class="st0" d="M-37.4-472.1c0.3,0.4,0.5,0.7,0.3,0.9l0,0.1l-0.1,0
			c0,0-1.1,0.7-1.7,1.5c-0.1,0.1-0.2,0.3-0.2,0.4l-0.1,0.2l-0.1-0.2c-0.1-0.1-0.1-0.2-0.2-0.4c-0.6-0.8-1.7-1.5-1.7-1.5l-0.1,0
			l0-0.1c-0.1-0.2,0-0.5,0.3-0.9h-1.4c-0.5,0.2-1.5,0.5-2.1,1.1c1,0.1,2.8,0.4,3.3,1.9c0.1,0.2,0.6,1.2-0.3,3.8c0,0-1,3.3,0.1,7.7
			l0,0.1l0,0.1c0,0-0.5,1,0,2l0.1,0.1l-0.1,0.1c-0.2,0.3-0.4,0.8-0.6,1.2c0.6-0.4,1.4-0.9,1.7-1.4c0-0.1,0-0.2-0.1-0.4l0-0.1
			c0-0.1-0.4-1.1,0.1-1.9c0.2-0.4,0.6-0.6,1.1-0.7l0,0l0.1,0c0.5,0.1,0.8,0.3,1,0.7c0.4,0.8,0.1,1.8,0.1,1.8l0,0.1
			c-0.2,0.2-0.2,0.4-0.2,0.4c0.4,0.5,1.2,1,1.7,1.4c-0.1-0.4-0.4-0.9-0.6-1.2l-0.1-0.1l0.1-0.1c0.5-1,0-2,0-2l-0.1-0.1l0-0.1
			c1.1-4.4,0.1-7.7,0.1-7.7c-0.8-2.6-0.4-3.6-0.3-3.8c0.5-1.5,2.3-1.8,3.3-1.9c-0.6-0.6-1.6-0.9-2.1-1.1L-37.4-472.1z M-42.3-471
			c-0.2,0-0.3-0.1-0.3-0.3c0-0.2,0.1-0.3,0.3-0.3c0.2,0,0.3,0.1,0.3,0.3C-42-471.2-42.1-471-42.3-471z M-37-463.6
			c0,0.2,0,0.3-0.1,0.5l0,0c0,0.1-0.5,1.3-1.8,2.5c-0.1,0.1-0.1,0.1-0.2,0.2l-0.1,0.1l-0.1-0.1l0.1-0.1l-0.1,0.1
			c-0.1-0.1-0.1-0.1-0.2-0.2c-1.3-1.2-1.8-2.3-1.8-2.5l0,0l0,0c-0.1-0.2-0.1-0.3-0.1-0.5c0-0.7,0.6-1.3,1.3-1.3
			c0.3,0,0.6,0.1,0.9,0.3c0.2-0.2,0.6-0.3,0.9-0.3C-37.6-464.9-37-464.4-37-463.6L-37-463.6z M-35.8-471.3c0,0.2-0.1,0.3-0.3,0.3
			s-0.3-0.1-0.3-0.3c0-0.2,0.1-0.3,0.3-0.3C-36-471.6-35.8-471.5-35.8-471.3z"/>
		<path id="path2882-7" inkscape:connector-curvature="0" class="st0" d="M-51.6-472.1c2.2,0.9,6.9,3.2,9.4,7.4
			c0-0.2,0.1-0.4,0.1-0.5c-0.2-0.6-2-5.1-8.6-6.8H-51.6z"/>
		<path id="path2884-8" inkscape:connector-curvature="0" class="st0" d="M-59.5-472.1c0.7,0.6,1.8,1.4,2.5,1.6l0.3,0.1l-0.1,0.3
			c0,0-0.3,0.6-1,0.9c0.3,0.1,0.5,0.1,0.8,0.1l0.5,0l-0.2,0.5c0,0.1-0.3,0.8-0.8,1.2c0.3,0.1,0.8,0.2,1.5,0.2l0.5,0l-0.3,0.5
			c0,0.1-0.4,0.7-0.9,1.2c0.3,0.1,0.7,0.2,1.1,0.2c0.3,0,0.7-0.1,1-0.2l0.9-0.4l-0.5,0.9c-0.1,0.1-0.5,0.7-1,1.2
			c0.4,0.1,0.9,0.2,1.5,0.2c0.3,0,0.5,0,0.7-0.1l0.7-0.2l-0.4,0.7c-0.1,0.2-0.4,0.7-0.7,1.1c0.2,0.1,0.5,0.2,0.8,0.2
			c0.2,0,0.4-0.1,0.6-0.2l0.4-0.3l0.1,0.4c0,0.1,0.1,0.7,0.1,1.2c0.3,0,0.7,0,1.1-0.4l0.3-0.3l0.2,0.4c0,0,0.2,0.5,0.2,1
			c0.2-0.1,0.5-0.2,0.7-0.5l0.2-0.3l0.2,0.3c0,0,0.6,0.7,0.6,1.8c0.2-0.1,0.4-0.3,0.5-0.5l0.2-0.3l0.3,0.3c0,0,0.5,0.5,0.7,1.1
			l0.5-0.3l0.4,0.7c0.1-0.1,0.2-0.2,0.2-0.4l0.3-0.7l0.2,0.7c0,0.1,0.1,0.3,0.2,0.5c0.5-0.5,1.3-1.3,2.2-1.4c-0.3-2.1-0.2-3.8,0-4.9
			c-0.2,0-0.4,0.1-0.7,0.1c-0.6,0-1.5-0.1-2.4-0.6l-0.5-0.3l0.6,0.1c0,0,1.7,0.2,2.5,0.2c0.1,0,0.2,0,0.2,0c-0.1-0.3-0.5-1-1.4-1
			c-0.1,0-1.8-0.1-2.6-0.7l-0.4-0.2l0.4,0.1c0,0,1.6,0.2,2.3,0.2c0,0,0,0,0,0c-0.2-0.2-0.5-0.7-0.9-1c-0.3,0-2.2,0-3.2-0.8l-0.3-0.3
			l0.4,0.1c0,0,1.1,0.2,1.9,0.2c0.2,0,0.3,0,0.4,0c-0.1-0.2-0.5-0.6-1.1-0.8c-0.2,0-1.6-0.1-2.7-0.6l-0.6-0.3l0.6,0.1
			c0,0,1.2,0.1,1.9,0.1c0,0,0.1,0,0.1,0c-0.4-0.3-1.1-0.8-1.9-1.1c-0.3,0-3.6-0.1-6.7-0.9l0-0.2c0,0,2.7,0.2,4.2,0.2
			c0.2,0,0.4,0,0.6,0c-0.4-0.2-1.1-0.5-1.7-0.7L-59.5-472.1L-59.5-472.1z"/>
		<path id="path2888-4" inkscape:connector-curvature="0" class="st0" d="M-30.3-422.4L-30.3-422.4l0.3,0.3l0,0
			c-0.8,0.6-1.3,2.1-1.5,2.6c0.4,0.1,0.8,0.3,1.2,0.4c-0.1-2.3,2.1-3.4,3.2-3.7c-0.4-0.2-0.8-0.2-1.2-0.2c-0.9,0-1.4,0.4-1.5,0.5
			l-0.2,0.2l-0.1-0.3c-0.3-0.7-1-1.1-1.3-1.2c0,2.5-1.1,3.6-1.9,4c0.4,0.1,0.9,0.2,1.3,0.3C-31.7-420.1-31.1-421.8-30.3-422.4
			L-30.3-422.4z"/>
		<path id="path2890-5" inkscape:connector-curvature="0" class="st0" d="M-32.5-416.8c-0.1,0-0.2-0.1-0.2-0.1l-0.5,1.6
			c0.1,0,0.2,0.1,0.2,0.1L-32.5-416.8z"/>
		<path id="path2892-0" inkscape:connector-curvature="0" class="st0" d="M-32.7-415c0.4,0.2,0.7,0.4,1,0.6c0.4-0.4,0.8-0.9,1.1-1.5
			c-0.4-0.3-1-0.6-1.6-0.8L-32.7-415z"/>
		<path id="path2894-3" inkscape:connector-curvature="0" class="st0" d="M-38.7-416.4c1.1,0,3.1,0.2,5,0.9l0.5-1.6
			c-2-0.5-4.3-0.7-5.5-0.7L-38.7-416.4z"/>
		<path id="path2896-6" inkscape:connector-curvature="0" class="st0" d="M-39.2-415.7L-39.2-415.7c1,0,4.5,0.1,7.1,1.8
			c0,0,0.1-0.1,0.1-0.1c-2.5-1.7-6-1.9-7-1.9c-0.2,0-0.3,0-0.4,0c-1,0-4.5,0.2-7,1.9c0,0,0.1,0.1,0.1,0.1
			C-43.7-415.6-40.2-415.7-39.2-415.7L-39.2-415.7z"/>
		<path id="path2898-1" inkscape:connector-curvature="0" class="st0" d="M-32.7-413.4c0.1-0.1,0.2-0.2,0.3-0.3
			c-2.5-1.5-5.7-1.6-6.6-1.6l-0.1,0h-0.1h0l-0.1,0c-0.9,0-4.2,0.2-6.6,1.6c0.1,0.1,0.2,0.2,0.3,0.3c0,0,1.8,1.2,6.5,1.3
			C-34.5-412.2-32.7-413.4-32.7-413.4L-32.7-413.4z"/>
		<path id="path2900-0" inkscape:connector-curvature="0" class="st0" d="M-44.7-424.1c-0.1,0.4-0.2,1.2,0.2,2
			c0.3,0.7,1,1.2,1.9,1.6C-42.5-421.1-42.5-422.9-44.7-424.1L-44.7-424.1z M-43.1-420.9L-43.1-420.9c-0.9-0.8-1.4-2.2-1.4-2.3l0-0.1
			l0.4-0.1l0,0.1c0,0,0.4,1.3,1.2,2.1l0,0L-43.1-420.9z"/>
		<path id="path2902-6" inkscape:connector-curvature="0" class="st0" d="M-39.5-420.4c0.1,0,0.2,0,0.3,0c0.1,0,0.2,0,0.3,0
			c0.3,0,0.8,0,1.5,0.1c0-3.2,2.3-4.9,3.2-5.4c-0.5-0.3-1.1-0.4-1.7-0.4c-1.3,0-2.1,0.6-2.1,0.6l-0.3,0.3l0-0.4c0-1-0.5-1.7-0.9-2
			c-0.3,0.3-0.9,1-0.9,2l0,0.4l-0.3-0.3c0,0-0.9-0.6-2.1-0.6c-0.6,0-1.1,0.1-1.7,0.4c0.9,0.5,3.2,2.2,3.2,5.4
			C-40.3-420.4-39.7-420.4-39.5-420.4L-39.5-420.4z M-39.4-426.1h0.5v1.8h-0.5V-426.1z M-42.8-425.4l0.1-0.4l0,0
			c0,0,2.3,0.6,3.4,3.4c1.1-2.8,3.4-3.4,3.4-3.4l0.1,0l0.1,0.4l-0.1,0c0,0-2.4,0.6-3.3,3.6c-0.1,0.2-0.1,0.4-0.2,0.6l-0.1,0.3
			l-0.1-0.3c-0.1-0.2-0.1-0.4-0.2-0.6C-40.3-424.8-42.7-425.4-42.8-425.4L-42.8-425.4z"/>
		<path id="path2904-3" inkscape:connector-curvature="0" class="st0" d="M-33.9-422.1c0.4-0.8,0.3-1.6,0.2-2
			c-2.2,1.1-2.2,2.9-2.1,3.6C-34.9-420.8-34.2-421.4-33.9-422.1z M-35.5-421.2c0.8-0.7,1.2-2.1,1.2-2.1l0-0.1l0.4,0.1l0,0.1
			c0,0.1-0.5,1.5-1.3,2.3l0,0L-35.5-421.2L-35.5-421.2z"/>
		<path id="path2906-2" inkscape:connector-curvature="0" class="st0" d="M-39.2-419.1c0.1,0,0.2,0,0.3,0c5.4,0,8.1,1.3,9.1,1.9
			c0.3-0.5,0.4-0.9,0.5-1.1c-3.4-1.6-8.4-1.8-9.9-1.8c-1.5,0-6.5,0.2-9.9,1.8c0.1,0.2,0.2,0.6,0.5,1.1c0.9-0.6,3.6-1.9,9.1-1.9
			C-39.4-419.1-39.3-419.1-39.2-419.1z"/>
		<path id="path2908-0" inkscape:connector-curvature="0" class="st0" d="M-39.8-416.4v-1.3c-1.2,0-3.4,0.1-5.4,0.7l0.5,1.6
			C-42.8-416.2-40.8-416.4-39.8-416.4z"/>
		<path id="path2910-6" inkscape:connector-curvature="0" class="st0" d="M-45.8-416.8l0.5,1.6c0.1,0,0.2-0.1,0.2-0.1l-0.5-1.6
			C-45.7-416.9-45.7-416.9-45.8-416.8L-45.8-416.8z"/>
		<path id="path2912-1" inkscape:connector-curvature="0" class="st0" d="M-39.3-416.4C-39.3-416.4-39.3-416.4-39.3-416.4h0.2h0.1
			v-1.3h-0.2L-39.3-416.4z"/>
		<path id="path2914-5" inkscape:connector-curvature="0" class="st0" d="M-46.2-416.7c-0.6,0.2-1.2,0.5-1.6,0.8
			c0.3,0.5,0.7,1,1.1,1.5c0.3-0.2,0.6-0.4,1-0.6L-46.2-416.7z"/>
		<path id="path2916-5" inkscape:connector-curvature="0" class="st0" d="M-46.9-419.4c-0.2-0.5-0.7-2.1-1.5-2.6l0,0l0.3-0.3l0,0
			c0.9,0.7,1.4,2.3,1.6,2.9c0.4-0.1,0.8-0.2,1.3-0.3c-0.7-0.4-1.8-1.5-1.9-4c-0.4,0.1-1,0.5-1.3,1.2l-0.1,0.3l-0.2-0.2
			c-0.1-0.1-0.6-0.5-1.5-0.5c-0.4,0-0.8,0.1-1.2,0.2c1.1,0.4,3.3,1.4,3.2,3.7C-47.7-419.2-47.3-419.3-46.9-419.4L-46.9-419.4z"/>
		<path id="path2918-4" inkscape:connector-curvature="0" class="st0" d="M-39.2-418.2c0.1,0,0.1,0,0.2,0c1.4,0,6.2,0.1,8.7,1.9
			c0.1-0.2,0.2-0.3,0.3-0.5c-2.6-1.8-7.5-1.9-8.9-1.9H-39c-0.1,0-0.1,0-0.2,0c-0.1,0-0.2,0-0.3,0c-1.4,0-6.3,0.1-8.9,1.9
			c0.1,0.2,0.2,0.3,0.3,0.5c2.5-1.8,7.3-1.9,8.7-1.9H-39.2z"/>
		<path id="path2922-7" inkscape:connector-curvature="0" class="st0" d="M-71.3-434.1c-0.1-0.1-0.3-0.2-0.4-0.4l-1.8,1.3
			c0.1,0.1,0.3,0.3,0.4,0.4L-71.3-434.1z"/>
		<path id="path2924-6" inkscape:connector-curvature="0" class="st0" d="M1.4-440.5c-1.1,0.8-2.1,1.4-3.1,1.8l1.3,0.8
			C0.3-438.9,0.9-439.8,1.4-440.5z"/>
		<path id="path2926-5" inkscape:connector-curvature="0" class="st0" d="M-4.6-436.8l1.9,1.4c0.1-0.1,0.3-0.3,0.4-0.5l-2.1-1.4
			C-4.4-437.1-4.5-436.9-4.6-436.8L-4.6-436.8z"/>
		<path id="path2928-6" inkscape:connector-curvature="0" class="st0" d="M-2.8-438.4l1.8,1.2c0.1-0.1,0.1-0.1,0.2-0.2l-1.7-1
			C-2.7-438.4-2.8-438.4-2.8-438.4L-2.8-438.4z"/>
		<path id="path2930-9" inkscape:connector-curvature="0" class="st0" d="M-0.6-425.7c-0.1-0.1-0.1-0.1-0.2-0.1c-0.1,0-0.1,0-0.2,0
			c-0.1,0-0.1,0.1-0.1,0.2c-0.1,0.1-0.1,0.4-0.1,0.7c0,0.3,0,0.6,0,0.7c0,0.1,0.1,0.2,0.1,0.3c0,0,0.1,0.1,0.2,0.1
			c0.1,0,0.1,0,0.2,0c0.1,0,0.1-0.1,0.1-0.2c0.1-0.1,0.1-0.4,0.1-0.7c0-0.3,0-0.6,0-0.7C-0.5-425.6-0.6-425.7-0.6-425.7L-0.6-425.7z
			"/>
		<path id="path2932-3" inkscape:connector-curvature="0" class="st0" d="M1.5-423.2c0.1,0,0.2,0,0.3,0c0.1-0.1,0.2-0.2,0.2-0.3
			c0.1-0.2,0.1-0.3,0-0.4c0-0.1-0.1-0.2-0.2-0.2c-0.1,0-0.2,0-0.3,0c-0.1,0.1-0.2,0.2-0.2,0.3c-0.1,0.2-0.1,0.3,0,0.4
			C1.4-423.3,1.4-423.2,1.5-423.2L1.5-423.2z"/>
		<path id="path2934-7" inkscape:connector-curvature="0" class="st0" d="M-3.4-424.5c-0.1-0.1-0.2-0.1-0.3-0.1
			c-0.1,0-0.2,0.1-0.2,0.2c-0.1,0.1-0.1,0.2,0,0.4c0,0.2,0.1,0.3,0.2,0.4c0.1,0.1,0.2,0.1,0.3,0.1c0.1,0,0.2-0.1,0.2-0.2
			c0-0.1,0-0.2,0-0.4C-3.2-424.4-3.3-424.5-3.4-424.5L-3.4-424.5z"/>
		<path id="path2936-4" inkscape:connector-curvature="0" class="st0" d="M-10.3-426.5c0,0.2-0.1,0.4-0.1,0.6
			c-0.1,0.3-0.2,0.7-0.3,1c-0.1,0.4-0.3,0.9-0.5,1.4c0,0.1-0.1,0.2-0.1,0.3l0,0.1c-0.1,0.3-0.2,0.7-0.4,1l0,0.1
			c0,0.1-0.1,0.2-0.1,0.3c-0.2,0.4-0.4,0.8-0.5,1.2l0,0.1c-0.2,0.3-0.3,0.7-0.5,1c1.2,0.2,5.1,0.5,9-2.1c0,0,3.6-2.1,6.8,0.5
			c0,0,2.8,1.9,2,6.6c0,0,2.7-2.8,1.8-8.6c0,0-0.6-3.9-6.6-6.2C0-429.2-4.7-426.8-10.3-426.5L-10.3-426.5z M-7.4-422.3l-0.4-2.1
			c-0.2,0.2-0.4,0.4-0.6,0.6l-0.1-0.5c0.1-0.1,0.3-0.2,0.4-0.3c0.1-0.2,0.2-0.3,0.3-0.5l0.4-0.1l0.5,2.9L-7.4-422.3z M-5.6-422.7
			l-0.1-0.5l0.5-0.1l0.1,0.6L-5.6-422.7z M-2.7-423.5c-0.1,0.2-0.3,0.4-0.6,0.4c-0.3,0.1-0.5,0-0.8-0.2c-0.2-0.2-0.4-0.5-0.5-1
			c-0.1-0.5-0.1-0.9,0-1.2c0.1-0.3,0.4-0.4,0.7-0.5c0.2-0.1,0.4,0,0.6,0c0.2,0.1,0.3,0.2,0.4,0.5l-0.5,0.2c0-0.1-0.1-0.2-0.2-0.2
			c-0.1,0-0.1-0.1-0.2,0c-0.1,0-0.2,0.1-0.3,0.2c0,0.1,0,0.4,0,0.7c0.1-0.2,0.2-0.3,0.5-0.4c0.2,0,0.4,0,0.6,0.1
			c0.2,0.1,0.3,0.3,0.4,0.6C-2.5-424-2.6-423.8-2.7-423.5L-2.7-423.5z M0.9-424.4c0.2-0.5,0.4-0.8,0.7-1c0.3-0.1,0.5-0.2,0.8-0.1
			c0.2,0.1,0.4,0.2,0.5,0.4c0.1,0.2,0.1,0.4,0.1,0.6l-0.5-0.1c0-0.1,0-0.2,0-0.3c0-0.1-0.1-0.1-0.2-0.1c-0.1,0-0.2,0-0.3,0
			c-0.1,0.1-0.2,0.3-0.4,0.6c0.2-0.1,0.4-0.1,0.6-0.1c0.2,0.1,0.4,0.2,0.5,0.5c0.1,0.2,0.1,0.5,0,0.7c-0.1,0.3-0.3,0.5-0.5,0.6
			c-0.2,0.1-0.5,0.1-0.7,0c-0.3-0.1-0.5-0.3-0.6-0.6C0.7-423.6,0.7-424,0.9-424.4L0.9-424.4z M0-424.7c-0.1,0.5-0.2,0.9-0.4,1.2
			c-0.2,0.2-0.4,0.3-0.7,0.2c-0.3,0-0.5-0.2-0.6-0.4c-0.2-0.2-0.2-0.6-0.1-1.2c0.1-0.5,0.2-0.9,0.4-1.1c0.2-0.2,0.4-0.3,0.7-0.2
			c0.3,0,0.5,0.2,0.6,0.4C0-425.6,0.1-425.2,0-424.7L0-424.7z"/>
		<path id="path2940-5" inkscape:connector-curvature="0" class="st0" d="M-5.4-435.9l1.9,1.4c0.1-0.1,0.3-0.3,0.4-0.5l-1.9-1.4
			C-5.1-436.2-5.3-436-5.4-435.9z"/>
		<path id="path2942-2" inkscape:connector-curvature="0" class="st0" d="M-32.6-396.7c-2.8,0.7-2.9-2.6-2.9-2.6
			c-0.4-2.5,0.5-4,1.1-4.6c-0.8,0.1-1.6,0.2-2.4,0.3c-2.2,3.4-1.5,6.3-1.5,6.3c0.7,3.2,3.2,4,3.2,4
			C-32.6-393.7-32.6-396.7-32.6-396.7z"/>
		<path id="path2944-5" inkscape:connector-curvature="0" class="st0" d="M-28.6-398.3c-0.5,0.4-1.3,0.4-1.3,0.4
			c0.6,3.7-1.9,5.6-1.9,5.6c0.5,0.2,1.3,0,1.3,0C-27.6-394.4-28.6-398.3-28.6-398.3z"/>
		<path id="path2946-4" inkscape:connector-curvature="0" class="st0" d="M-28.6-392.7c0,0,1.1-0.2,2.7-1.9c0,0-1-1.4-1.2-2.2
			C-27.2-396.7-27.6-393.8-28.6-392.7L-28.6-392.7z"/>
		<path id="path2948-7" inkscape:connector-curvature="0" class="st0" d="M-30.6-397.8c0,0-1.1-0.3-1.3-0.5c0,0,0.5,4.5-2.5,5.4
			c0,0,1,0.5,1.6,0.5C-32.8-392.4-30.3-394.2-30.6-397.8L-30.6-397.8z"/>
		<path id="path2952-4" inkscape:connector-curvature="0" class="st0" d="M-21.2-393.7c0,0,0.8-0.5,1-1.2c0,0-2.4-0.3-3.4-3
			c0,0,1.7,2.2,3.6,2.2c0,0,0.2-0.6,0-1.4c0,0-2.4,0.5-3-2.5c0,0,1.2,1.8,2.9,1.5c0,0,0.2-4.3-7.1-8.1c-1.5,0.7-3.1,1.3-4.8,1.7
			c1.2,0.3,3.1,1.2,4.1,4.5c0,0,0.5,3,2.4,5.1c0,0,1.5,1.8,2.9,1.6c0,0-1.9-2.1-2-3.5C-24.3-396.8-23.1-394.7-21.2-393.7
			L-21.2-393.7z"/>
		<path id="path2956-4" inkscape:connector-curvature="0" class="st0" d="M3.8-417.3c0,0-0.3,0.1-0.6,0.5c0,0-1.1,1.3-1.8,1.6
			c0,0,2.4-2,1.6-4.7c0,0-0.1-0.3-0.4-0.2c0,0-0.3,0-0.4,0.5c0,0-1,2.3-1.9,2.9c0,0,1.1-1.1,0.9-4c0,0-0.1-0.6-0.7-0.6
			c0,0-0.6,0-0.5,0.7c0,0,0.4,2-1.4,3.5c0,0,1.1-1.9,0-3.7c0,0-0.3-0.4-0.9-0.2c0,0-0.5,0.3-0.3,0.9c0,0,1.5,2.4-1.4,3.9
			c0,0-3.5,1.7-8.8-2.3c0,0-0.3,0-0.6-0.2c-0.2,0.3-0.4,0.6-0.5,0.9l0,0c0,0,0,0.1-0.1,0.1c0.4,0.5,1.4,1.4,3.2,2.2c0,0-2.6-1-4-1
			c0,0,0,0.1-0.1,0.1l0,0.1c0,0,0,0,0,0.1c-0.2,0.2-0.3,0.4-0.5,0.7c0.7,0,2.2,0.2,4.1,1.5c0,0-3.1-1-4.7-0.8l0,0
			c-0.2,0.3-0.4,0.5-0.6,0.7c0.8-0.1,2.3-0.1,4.7,1c0,0-3.7-0.5-5.2-0.4c-0.2,0.2-0.4,0.4-0.6,0.6c0.9,0,3.4,0.2,7.5,2.3
			c0,0,5.6,2.5,10.6,0c0,0,2.8-1.3,3.6-3.3c0,0,0.3-1-0.6-0.5c0,0-1.1,0.8-2.2,1.1c0,0,3.1-1.6,3.1-3.7C4.3-417,4.4-417.6,3.8-417.3
			L3.8-417.3z"/>
		<path id="path2958-3" inkscape:connector-curvature="0" class="st0" d="M-18.2-412.4c-0.2,0.2-0.5,0.5-0.7,0.7l-0.1,0.1
			c-0.3,0.3-0.6,0.6-0.9,0.8c-0.1,0.1-0.2,0.1-0.2,0.2c-0.4,0.3-0.7,0.6-1,0.8c-0.1,1.2-0.1,5.6,1.3,8.6c0,0,2.6,5.7-1.3,8.1
			c0,0,5.1,1.3,7.9-2.3c0,0,2.3-2.5,0.9-7.5c0,0-1.8-5,0.3-8.2C-12.2-411-15.2-412.5-18.2-412.4L-18.2-412.4z M-15.3-401.2
			c-0.1,0.2-0.3,0.3-0.5,0.3c-0.1,0-0.3,0-0.4,0c-0.1-0.1-0.2-0.1-0.3-0.3c0,0.2-0.1,0.3-0.2,0.4c-0.1,0.1-0.2,0.2-0.4,0.2
			c-0.3,0-0.5,0-0.7-0.2c-0.2-0.1-0.3-0.4-0.3-0.6c0-0.3,0-0.5,0.1-0.7c0.1-0.2,0.3-0.4,0.6-0.4c0.2,0,0.3,0,0.4,0.1
			c0.1,0.1,0.3,0.2,0.3,0.3c0-0.1,0.1-0.3,0.2-0.4c0.1-0.1,0.2-0.1,0.3-0.1c0.2,0,0.4,0,0.6,0.1c0.2,0.1,0.3,0.3,0.3,0.6
			C-15.1-401.6-15.2-401.4-15.3-401.2L-15.3-401.2z M-16.6-403.9c0.1,0.1,0.2,0.1,0.4,0.1c0.1,0,0.2,0,0.3-0.1
			c0.1-0.1,0.1-0.2,0.1-0.3c0-0.1-0.1-0.2-0.1-0.3c-0.1-0.1-0.2-0.1-0.4-0.1l0-0.6c0.3,0,0.5,0.1,0.7,0.3c0.1,0.2,0.2,0.4,0.3,0.6
			c0,0.3,0,0.5-0.2,0.7c-0.1,0.2-0.3,0.3-0.6,0.3c-0.1,0-0.3,0-0.4,0c-0.1,0-0.3-0.1-0.4-0.2c-0.1-0.1-0.2-0.2-0.4-0.3
			c-0.2-0.2-0.3-0.3-0.3-0.3c-0.1,0-0.1-0.1-0.2-0.1l0.1,1.1l-0.5,0l-0.2-2c0.2,0,0.4,0.1,0.6,0.1c0.2,0.1,0.4,0.3,0.7,0.6
			C-16.8-404.1-16.7-403.9-16.6-403.9L-16.6-403.9z"/>
		<path id="path2960-0" inkscape:connector-curvature="0" class="st0" d="M-16.9-401.9c-0.1-0.1-0.2-0.1-0.3-0.1
			c-0.1,0-0.3,0.1-0.3,0.2c-0.1,0.1-0.1,0.2-0.1,0.3c0,0.1,0.1,0.2,0.2,0.3c0.1,0.1,0.2,0.1,0.4,0.1c0.1,0,0.2-0.1,0.3-0.2
			c0.1-0.1,0.1-0.2,0.1-0.3C-16.7-401.8-16.8-401.9-16.9-401.9L-16.9-401.9z"/>
		<path id="path2962-7" inkscape:connector-curvature="0" class="st0" d="M-16-402.1c-0.1,0-0.2,0.1-0.2,0.1
			c-0.1,0.1-0.1,0.2-0.1,0.3c0,0.1,0.1,0.2,0.1,0.2c0.1,0.1,0.2,0.1,0.3,0.1c0.1,0,0.2-0.1,0.2-0.1c0-0.1,0.1-0.2,0.1-0.3
			c0-0.1-0.1-0.2-0.1-0.2C-15.8-402.1-15.9-402.1-16-402.1L-16-402.1z"/>
		<polygon id="polygon2966-8" class="st0" points="-8.1,-464.7 -7.4,-465.3 -9.5,-467.9 -9.5,-467.9 -9.5,-466.6 		"/>
		<polygon id="polygon2968-6" class="st0" points="-9.2,-463.9 -8.6,-464.4 -9.5,-465.6 -9.5,-464.4 		"/>
		<polygon id="polygon2970" class="st0" points="-5.3,-467 -7.4,-469.6 -7.9,-469.2 -5.8,-466.5 		"/>
		<polygon id="polygon2972-8" class="st0" points="-9.5,-459.8 -9.5,-458.5 -9.2,-458.1 -8.5,-458.6 		"/>
		
			<rect id="rect2974-8" x="-8.1" y="-468.9" transform="matrix(0.7846 -0.6199 0.6199 0.7846 287.9732 -105.372)" class="st0" width="0.8" height="3.4"/>
		<path id="path2976-4" inkscape:connector-curvature="0" class="st0" d="M-6.4-434.9l1.8,1.3c0.2-0.2,0.4-0.4,0.6-0.5l-1.8-1.4
			C-6-435.2-6.2-435-6.4-434.9L-6.4-434.9z"/>
		<path id="path2978-3" inkscape:connector-curvature="0" class="st0" d="M-9.5-439.8v1.2l1.3,1.1c0.3-0.2,0.6-0.4,0.8-0.7l-2-1.7
			C-9.4-439.9-9.5-439.9-9.5-439.8L-9.5-439.8z"/>
		<path id="path2980-1" inkscape:connector-curvature="0" class="st0" d="M14.1-466.2c0,0-0.8,0-1.9,0.4c0,0-2.7,1.2-4.1-1.6
			c0,0-1.8,1.4-3.1,1.7c0,0,0.8,4.4-6,6.2c0,0,0.3,3.3,5,1.9c0,0,0.7,0.3,0.7,1.4c0,0,3.3-1.2,3.5-3.3c0,0,0.2-0.3,0.5-0.1
			c0,0,1,3.8-2.8,5.9c0,0-1.8,0.8-2.5,2.1c0,0,1.7-0.6,2.6,0.7c0,0,0.2,0.2,0.2,1c0,0,0.2,3.3,3.2,4.6c0,0,2.2,0.7,4.7-0.1
			c0,0-2.7-3.7-1.5-8.1c0,0,0.1-0.2,0.6-1.4C13.2-454.8,16.6-460.8,14.1-466.2L14.1-466.2z M2.6-458.8c5.2-1.7,5.5-6.9,5.5-6.9
			C8.9-458.8,2.6-458.8,2.6-458.8z M10.6-455.3c-3.1,3.2-2,6-2,6c-2.8-2.9,1.2-6.7,1.2-6.7c4.3-4.4,1.4-8.7,1.4-8.7
			C15.4-459.6,10.6-455.3,10.6-455.3z"/>
		<path id="path2982-4" inkscape:connector-curvature="0" class="st0" d="M-2.5-487.8c0,0,1.9,3.2-1.1,5.9c0,0,1.2,5-2.9,6.2
			c0,0,0.2,3.1,3.8,3.3c0,0-1.8,1.9-0.1,4.9c0,0,0.7-0.7,3.1-0.7c0,0,2.2-0.1,2.5-2.1c0,0,0.2,2.8,2.2,3.9c0,0,2.5-0.7,3.2-2.4
			c0,0,1.1,2.9,3.1,2.6c0,0,2-1.2,4.6-0.4c0,0-1.5-2.9-2.1-7.2c0,0-0.9-6.1-6.2-10.8c0,0,1.4,3.7,2.7,9.1c0,0,1.1,4.8,3,7.8
			c0,0-2.2-2.3-3.6-8c0,0-1.5-7.8-4.9-11.3c0,0-1.7-1.8-5.3-2.9C-0.6-489.8-1.8-488.4-2.5-487.8L-2.5-487.8z M5.5-478.4
			c0,0-0.5,6.8,1.6,9.9c0,0-2.5-0.8-2.1-9.9c0,0,0.5-5.8-2.5-9.5C2.4-487.9,5.8-485.3,5.5-478.4L5.5-478.4z M0.1-488.4
			c0,0,3,3.4,0.4,11.5c0,0-1.4,3.8-0.3,8c0,0-1.7-2.4-0.2-8.2C0.1-477.1,2.1-481.7,0.1-488.4L0.1-488.4z M-1.8-477.5
			c0,0-1.4,1.6-1.3,3.5c0,0-1.8-0.6,1.2-6c0,0,1.5-2.8,0.6-7C-1.3-487.1,1.6-481.7-1.8-477.5z"/>
		<path id="path2984-9" inkscape:connector-curvature="0" class="st0" d="M-16.3-512.8c-0.2,0-0.3,0.1-0.4,0.1
			c-0.4,0.1-0.7,0.2-0.7,0.2c-3.5,1.2-6,3.1-7.8,5.1c0.1,0.7,0,1.6-0.2,2.7c0,0-0.4,1.7-2,2.3c0,0,0,0.1,0,0.2
			c3.5-2.5,6.6-1.8,6.6-1.8c-2.8,0.3-5.1,1.7-6.4,2.7c0.1,0.4,0.2,0.9,0.3,1.5c3.3-2.8,8-2.4,8-2.4c0-2.3-1.9-4.3-1.9-4.3
			c5.2-5.9,10.2-1.8,10.2-1.8c3.2,2.6,0.6,6.7,0.6,6.7c-0.4,0.6-0.6,0.1-0.6,0.1c-0.2-1.5-1.5-1.7-1.5-1.7c-1.1-0.1-1.8-0.7-1.8-0.7
			c-2.4,5.3,1.8,5.7,1.8,5.7c-0.6,1.4-0.1,2.7-0.1,2.7c0.7,0.4,3.1-2.4,3.1-2.4c1-1.3,2.3-0.9,2.3-0.9c1.9,0.8,0.9,2.8,0.9,2.8
			c-3.1,4.2-9.1,3-9.1,3c-1.6-0.3-2.3-0.2-2.3-0.2C-21-493.3-22-489-22-489c2.8,0.1,4-1.9,4-1.9c0.7-0.5,0.7,0.2,0.7,0.2
			c-3.7,6,0.2,10.4,0.2,10.4c0.9-0.7,1.4-2,1.4-2c0.5,2.1,3.4,2.4,3.4,2.4c-0.4-3.7,1.6-5.1,1.6-5.1c-0.8,1.3-0.9,2.5-0.9,2.5
			c1.5,0.1,2-0.5,2-0.5c0.4,3.6,3.3,3.8,3.3,3.8c-2.2-5,4-9.6,4-9.6c3.9-3.1,4.5-8.4,4.5-8.4c1.2-7.7-5.4-12.6-5.4-12.6
			C-8.2-513.8-14-513.3-16.3-512.8L-16.3-512.8z M-1.5-505.5c4.8,9-3.3,15.2-3.3,15.2c-3.6,2.8-3.9,6.7-3.9,6.7
			c-1.7-3.7,2.7-7.2,2.7-7.2C1.9-497.7-1.5-505.5-1.5-505.5z M-8.9-491.1c-2.5,1.4-3.6,2.4-3.6,2.4c-3.5,2.7-2.1,6-2.1,6
			c-4.5-4.7,4.8-9.2,4.8-9.2c2.7-1.3,4.5-3.5,4.5-3.5c4.7-6.2-0.2-13.7-0.2-13.7C3.7-497-8.9-491.1-8.9-491.1L-8.9-491.1z
			 M-9.6-500.1c3.6-3.4,1.7-8.1,1.7-8.1C-4.1-502.4-9.6-500.1-9.6-500.1z"/>
		<polygon id="polygon2988-2" class="st0" points="-7.5,-459.4 -9.5,-461.9 -9.5,-460.8 -8.1,-458.9 		"/>
		<path id="path2990-0" inkscape:connector-curvature="0" class="st0" d="M-9.5-436.6c0.3-0.2,0.6-0.4,0.8-0.6l-0.8-0.7V-436.6z"/>
		<path id="path2992-6" inkscape:connector-curvature="0" class="st0" d="M-9.6-432.3l0,0.2l1.3,1.5c0.4-0.2,0.7-0.5,1-0.7l-1.4-1.6
			C-9.1-432.6-9.4-432.4-9.6-432.3L-9.6-432.3z"/>
		<path id="path2994-8" inkscape:connector-curvature="0" class="st0" d="M-9.7-430.4c0,0.3-0.1,0.5-0.1,0.8
			c0.3-0.2,0.6-0.4,0.9-0.6l-0.8-0.9C-9.6-430.9-9.7-430.7-9.7-430.4L-9.7-430.4z"/>
		<path id="path2996-9" inkscape:connector-curvature="0" class="st0" d="M-2.3-446.9l1.6,1.4c0.1-0.1,0.1-0.2,0.2-0.3l-1.4-1.2
			C-2-447-2.2-447-2.3-446.9L-2.3-446.9z"/>
		<path id="path2998-2" inkscape:connector-curvature="0" class="st0" d="M-7.2-434.1l1.8,1.4c0.2-0.1,0.3-0.3,0.4-0.4l-1.8-1.3
			C-7-434.3-7.1-434.2-7.2-434.1z"/>
		<path id="path3000-6" inkscape:connector-curvature="0" class="st0" d="M0.5-448.2c-0.5,0.4-1.1,0.7-1.7,0.9l1,0.9
			C0.2-447.2,0.4-447.8,0.5-448.2z"/>
		<path id="path3002-6" inkscape:connector-curvature="0" class="st0" d="M-8.2-433.2l1.4,1.6c0.3-0.2,0.6-0.4,0.9-0.7l-1.8-1.4
			C-7.9-433.5-8-433.4-8.2-433.2z"/>
		<path id="path3004-4" inkscape:connector-curvature="0" class="st0" d="M-3.7-446.6l2.3,2.1c0.1-0.2,0.2-0.3,0.3-0.5l-2-1.7
			C-3.2-446.7-3.4-446.7-3.7-446.6L-3.7-446.6z"/>
		<path id="path3006-9" inkscape:connector-curvature="0" class="st0" d="M-7-442.4l2.2,1.9c0.2-0.2,0.3-0.3,0.5-0.5l-2.2-2
			C-6.7-442.7-6.8-442.6-7-442.4L-7-442.4z"/>
		<path id="path3008-5" inkscape:connector-curvature="0" class="st0" d="M-7.9-441.3l2,1.8c0.2-0.2,0.4-0.4,0.6-0.6l-2.1-1.8
			C-7.5-441.7-7.7-441.5-7.9-441.3z"/>
		<path id="path3010-0" inkscape:connector-curvature="0" class="st0" d="M-6.2-443.5l2.3,2c0.2-0.2,0.4-0.4,0.5-0.6l-2.5-2.2
			C-5.9-443.9-6.1-443.7-6.2-443.5z"/>
		<path id="path3012-4" inkscape:connector-curvature="0" class="st0" d="M-5.6-444.7l2.6,2.3c0.1-0.2,0.3-0.3,0.4-0.5l-2.7-2.4
			C-5.3-445.1-5.4-444.9-5.6-444.7z"/>
		<path id="path3014-8" inkscape:connector-curvature="0" class="st0" d="M-4.8-446.5c-0.1,0.2-0.1,0.4-0.2,0.6l2.9,2.5
			c0.2-0.2,0.3-0.4,0.5-0.6l-2.8-2.5C-4.6-446.5-4.7-446.5-4.8-446.5L-4.8-446.5z"/>
		<path id="path3016-7" inkscape:connector-curvature="0" class="st0" d="M-8.9-440.3l2,1.7c0.2-0.2,0.4-0.3,0.6-0.5l-2-1.7
			C-8.5-440.7-8.7-440.5-8.9-440.3z"/>
		<path id="path3018-1" inkscape:connector-curvature="0" class="st0" d="M-4-437.7l2.2,1.4c0.1-0.2,0.3-0.3,0.4-0.5l-2.3-1.4
			C-3.8-438-3.9-437.9-4-437.7L-4-437.7z"/>
		<path id="path3020-7" inkscape:connector-curvature="0" class="st0" d="M-69.6-440.3c-0.2-0.2-0.4-0.3-0.6-0.5l-2,1.7
			c0.2,0.2,0.4,0.3,0.6,0.5L-69.6-440.3z"/>
		<path id="path3022-2" inkscape:connector-curvature="0" class="st0" d="M-72.3-443.5c-0.2-0.2-0.3-0.5-0.4-0.7l-2.5,2.2
			c0.2,0.2,0.4,0.4,0.5,0.6L-72.3-443.5z"/>
		<path id="path3024-7" inkscape:connector-curvature="0" class="st0" d="M-70.6-441.3c-0.2-0.2-0.4-0.4-0.6-0.6l-2.1,1.8
			c0.2,0.2,0.4,0.4,0.6,0.6L-70.6-441.3z"/>
		<path id="path3026-2" inkscape:connector-curvature="0" class="st0" d="M-71.6-442.4c-0.1-0.2-0.3-0.4-0.4-0.6l-2.2,2
			c0.2,0.2,0.3,0.3,0.5,0.5L-71.6-442.4z"/>
		<path id="path3028-2" inkscape:connector-curvature="0" class="st0" d="M-73.5-446c-0.1-0.2-0.1-0.4-0.2-0.6c-0.1,0-0.2,0-0.3,0
			l-2.8,2.5c0.1,0.2,0.3,0.4,0.5,0.6L-73.5-446z"/>
		<path id="path3030-6" inkscape:connector-curvature="0" class="st0" d="M-73-444.7c-0.1-0.2-0.2-0.4-0.3-0.7L-76-443
			c0.1,0.2,0.3,0.3,0.4,0.5L-73-444.7z"/>
		<path id="path3032-1" inkscape:connector-curvature="0" class="st0" d="M-74.9-446.6c-0.2,0-0.4-0.1-0.6-0.1l-2,1.7
			c0.1,0.2,0.2,0.3,0.3,0.5L-74.9-446.6z"/>
		<path id="path3034-0" inkscape:connector-curvature="0" class="st0" d="M-68.9-431.2l-0.8,0.9c0.3,0.2,0.6,0.4,0.9,0.6
			C-68.8-430.2-68.9-430.7-68.9-431.2z"/>
		<polygon id="polygon3036-6" class="st0" points="-69,-461.9 -71,-459.4 -70.5,-458.9 -69,-460.8 		"/>
		<polygon id="polygon3038-1" class="st0" points="-69.4,-458.1 -69,-458.5 -69,-459.8 -70,-458.6 		"/>
		<path id="path3040-5" inkscape:connector-curvature="0" class="st0" d="M-78.3-446.4l1-0.9c-0.6-0.3-1.2-0.6-1.7-0.9
			C-78.9-447.8-78.7-447.2-78.3-446.4z"/>
		<path id="path3042-9" inkscape:connector-curvature="0" class="st0" d="M-69-432.1l0-0.2c-0.2-0.1-0.5-0.4-0.9-0.6l-1.4,1.6
			c0.3,0.2,0.7,0.5,1,0.7L-69-432.1z"/>
		<path id="path3044-4" inkscape:connector-curvature="0" class="st0" d="M-70.3-433.2c-0.2-0.1-0.3-0.3-0.5-0.4l-1.8,1.4
			c0.3,0.2,0.6,0.5,0.9,0.7L-70.3-433.2z"/>
		<polygon id="polygon3046-9" class="st0" points="-69,-466.6 -69,-467.9 -71.1,-465.3 -70.4,-464.7 		"/>
		<polygon id="polygon3048-0" class="st0" points="-70,-464.4 -69.4,-463.9 -69,-464.4 -69,-465.6 		"/>
		<path id="path3050-9" inkscape:connector-curvature="0" class="st0" d="M-69-437.9l-0.8,0.7c0.2,0.2,0.5,0.4,0.8,0.6V-437.9z"/>
		<path id="path3052-1" inkscape:connector-curvature="0" class="st0" d="M-76.2-446.9c-0.1,0-0.3-0.1-0.4-0.1l-1.3,1.2
			c0,0.1,0.1,0.2,0.2,0.3L-76.2-446.9z"/>
		<path id="path3054-7" inkscape:connector-curvature="0" class="st0" d="M-69-439.8c0,0-0.1-0.1-0.1-0.1l-2,1.7
			c0.3,0.2,0.6,0.4,0.8,0.7l1.3-1.1L-69-439.8L-69-439.8z"/>
		
			<rect id="rect3056-7" x="-72.5" y="-467.6" transform="matrix(0.6201 -0.7846 0.7846 0.6201 339.6177 -233.0871)" class="st0" width="3.4" height="0.8"/>
		
			<rect id="rect3058-1" x="-73.6" y="-468.4" transform="matrix(0.6256 -0.7802 0.7802 0.6256 338.245 -231.3725)" class="st0" width="3.4" height="0.7"/>
		<polygon id="polygon3060-1" class="st0" points="-20.3,-449.4 -20.9,-448.3 -20.3,-447.2 -19.6,-448.3 		"/>
		<polygon id="polygon3062-5" class="st0" points="-19.8,-446.5 -19.2,-445.4 -17.9,-445.4 -18.6,-446.5 		"/>
		<polygon id="polygon3064-9" class="st0" points="-20.7,-446.5 -22,-446.5 -22.6,-445.4 -21.3,-445.4 		"/>
		<polygon id="polygon3066-7" class="st0" points="-22.6,-448.1 -22,-447 -20.7,-447 -21.3,-448.1 		"/>
		<polygon id="polygon3068-7" class="st0" points="-20.9,-445.1 -20.3,-444 -19.6,-445.1 -19.7,-445.3 -20.3,-446.2 		"/>
		<polygon id="polygon3070-6" class="st0" points="-17.9,-448.1 -19.2,-448.1 -19.3,-447.9 -19.8,-447 -18.6,-447 		"/>
		<polygon id="polygon3074-7" class="st0" points="-26.9,-447 -25.6,-447 -25,-448.1 -26.3,-448.1 -26.4,-447.9 		"/>
		<polygon id="polygon3076-3" class="st0" points="-27.8,-447 -28.4,-448.1 -29.7,-448.1 -29.1,-447 		"/>
		<polygon id="polygon3078-6" class="st0" points="-27.4,-447.2 -26.7,-448.3 -27.4,-449.4 -28,-448.3 		"/>
		<polygon id="polygon3080-5" class="st0" points="-25,-445.4 -25.6,-446.5 -26.9,-446.5 -26.3,-445.4 		"/>
		<polygon id="polygon3082-6" class="st0" points="-26.8,-445.3 -27.4,-446.2 -28,-445.1 -27.4,-444 -26.7,-445.1 		"/>
		<polygon id="polygon3084-3" class="st0" points="-29.1,-446.5 -29.7,-445.4 -28.4,-445.4 -27.8,-446.5 		"/>
		<polygon id="polygon3088-9" class="st0" points="-34,-435.5 -35.3,-435.5 -36,-434.4 -34.7,-434.4 		"/>
		<polygon id="polygon3090-4" class="st0" points="-34,-435.9 -34.7,-437.1 -36,-437.1 -35.3,-435.9 		"/>
		<polygon id="polygon3092-8" class="st0" points="-31.9,-435.5 -33.2,-435.5 -32.5,-434.4 -31.3,-434.4 		"/>
		<polygon id="polygon3094-1" class="st0" points="-33.2,-435.9 -31.9,-435.9 -31.3,-437.1 -32.5,-437.1 -32.7,-436.9 		"/>
		<polygon id="polygon3096-2" class="st0" points="-33.6,-438.4 -34.3,-437.3 -33.6,-436.2 -33,-437.3 		"/>
		<polygon id="polygon3098-9" class="st0" points="-33.6,-435.2 -34.3,-434.1 -33.6,-433 -33,-434.1 -33.1,-434.3 		"/>
		<path id="path3104-3" inkscape:connector-curvature="0" class="st0" d="M-44.2-404c0.6,0.6,1.5,2.1,1.1,4.6c0,0-0.1,3.4-2.9,2.6
			c0,0,0,3.1,2.6,3.4c0,0,2.5-0.9,3.2-4c0,0,0.7-2.9-1.5-6.3C-42.6-403.7-43.4-403.8-44.2-404z"/>
		<path id="path3106-9" inkscape:connector-curvature="0" class="st0" d="M-46.7-398.3c-0.2,0.2-1.3,0.5-1.3,0.5
			c-0.3,3.6,2.2,5.4,2.2,5.4c0.6,0,1.6-0.5,1.6-0.5C-47.2-393.8-46.7-398.3-46.7-398.3z"/>
		<path id="path3108-0" inkscape:connector-curvature="0" class="st0" d="M-48.7-397.9c0,0-0.8,0-1.3-0.4c0,0-1,3.8,1.9,6
			c0,0,0.8,0.2,1.3,0C-46.8-392.2-49.3-394.1-48.7-397.9z"/>
		<path id="path3110-8" inkscape:connector-curvature="0" class="st0" d="M-52.6-394.5c1.5,1.7,2.7,1.9,2.7,1.9
			c-1-1.1-1.5-4.1-1.5-4.1C-51.7-395.9-52.6-394.5-52.6-394.5L-52.6-394.5z"/>
		<path id="path3114-8" inkscape:connector-curvature="0" class="st0" d="M-46.8-404.5c-1.6-0.4-3.2-1-4.8-1.7
			c-7.3,3.8-7.1,8.1-7.1,8.1c1.8,0.4,2.9-1.5,2.9-1.5c-0.6,3-3,2.5-3,2.5c-0.2,0.8,0,1.4,0,1.4c1.9,0,3.6-2.2,3.6-2.2
			c-1,2.7-3.4,3-3.4,3c0.2,0.8,1,1.2,1,1.2c1.9-1,3.2-3.2,3.2-3.2c-0.1,1.5-2,3.5-2,3.5c1.5,0.2,2.9-1.6,2.9-1.6
			c1.9-2.2,2.4-5.1,2.4-5.1C-49.9-403.3-48-404.3-46.8-404.5L-46.8-404.5z"/>
		<path id="path3118-5" inkscape:connector-curvature="0" class="st0" d="M-61.4-413.5c-1.5-0.1-5.3,0.4-5.3,0.4
			c2.4-1.1,4-1.1,4.7-1c-0.2-0.3-0.4-0.5-0.6-0.8c-1.6-0.3-4.7,0.8-4.7,0.8c1.9-1.4,3.5-1.5,4.2-1.5c-0.2-0.3-0.4-0.6-0.6-0.9
			c-1.4-0.1-4,1-4,1c1.8-0.8,2.8-1.7,3.2-2.2c-0.2-0.3-0.4-0.7-0.6-1c-0.3,0.1-0.6,0.2-0.6,0.2c-5.3,4-8.8,2.3-8.8,2.3
			c-2.9-1.5-1.4-3.9-1.4-3.9c0.2-0.6-0.3-0.9-0.3-0.9c-0.5-0.2-0.9,0.2-0.9,0.2c-1.1,1.8,0,3.7,0,3.7c-1.8-1.5-1.4-3.5-1.4-3.5
			c0.1-0.7-0.5-0.7-0.5-0.7c-0.6,0-0.7,0.6-0.7,0.6c-0.2,2.9,0.9,4,0.9,4c-0.9-0.5-1.9-2.9-1.9-2.9c-0.2-0.5-0.4-0.5-0.4-0.5
			c-0.3-0.1-0.4,0.2-0.4,0.2c-0.7,2.7,1.6,4.7,1.6,4.7c-0.7-0.2-1.8-1.6-1.8-1.6c-0.3-0.4-0.6-0.5-0.6-0.5c-0.6-0.3-0.6,0.3-0.6,0.3
			c0,2,3.1,3.7,3.1,3.7c-1.1-0.3-2.2-1.1-2.2-1.1c-0.9-0.4-0.6,0.5-0.6,0.5c0.8,2,3.6,3.3,3.6,3.3c5,2.5,10.6,0,10.6,0
			c4.2-2.1,6.7-2.3,7.6-2.3C-61.1-413.1-61.3-413.3-61.4-413.5L-61.4-413.5z"/>
		<path id="path3120-0" inkscape:connector-curvature="0" class="st0" d="M-16.7-431.1c0-0.4,0-0.8,0.1-1.2l-21.3-17.6v4.6
			l17.3,14.3L-16.7-431.1L-16.7-431.1z"/>
		<path id="path3122-9" inkscape:connector-curvature="0" class="st0" d="M-74.4-424.3c0.1,0,0.1,0,0.2-0.1c0.1,0,0.1-0.1,0.1-0.2
			c0-0.1,0-0.2,0-0.3c0-0.1-0.1-0.1-0.2-0.2c0,0-0.2-0.1-0.4-0.2l-0.4-0.2l-0.3,0.7l0.4,0.2C-74.6-424.4-74.5-424.3-74.4-424.3
			L-74.4-424.3z"/>
		<polygon id="polygon3124-6" class="st0" points="-68.7,-421.6 -68.9,-422.7 -69.5,-421.8 		"/>
		<path id="path3126-3" inkscape:connector-curvature="0" class="st0" d="M-71.6-423c0.1,0,0.1,0,0.2-0.1c0.1,0,0.1-0.1,0.1-0.2
			c0-0.1,0-0.2,0-0.3c0-0.1-0.1-0.1-0.2-0.2c0,0-0.2-0.1-0.4-0.2l-0.4-0.2l-0.3,0.7l0.4,0.2C-71.8-423-71.6-423-71.6-423L-71.6-423z
			"/>
		<polygon id="polygon3128-8" class="st0" points="-77.7,-424.5 -78.1,-425.6 -78.5,-424.5 		"/>
		<path id="path3130-5" inkscape:connector-curvature="0" class="st0" d="M-80.9-423.2c0.2-0.1,0.3-0.2,0.4-0.2
			c0.1-0.1,0.1-0.1,0.1-0.2c0-0.1,0-0.2,0-0.3c0-0.1-0.1-0.1-0.2-0.2c-0.1,0-0.1-0.1-0.2,0c-0.1,0-0.2,0.1-0.5,0.2l-0.4,0.2l0.3,0.7
			L-80.9-423.2z"/>
		<path id="path3132-6" inkscape:connector-curvature="0" class="st0" d="M-81.4-421c3.2-2.6,6.8-0.5,6.8-0.5
			c3.9,2.6,7.9,2.2,9.1,2.1c-0.9-1.7-1.7-3.6-2.2-5.5c-0.2-0.5-0.3-1.1-0.4-1.6c-5.7-0.2-10.4-2.7-10.4-2.7c-6,2.3-6.6,6.2-6.6,6.2
			c-0.9,5.8,1.8,8.6,1.8,8.6C-84.3-419.1-81.4-421-81.4-421z M-68.5-423.3l0.6,3.1l-0.6-0.1l-0.1-0.7l-1.1-0.2l-0.4,0.6l-0.6-0.1
			l1.7-2.6L-68.5-423.3z M-71.4-424.2c0.3,0.1,0.5,0.2,0.6,0.3c0.1,0.1,0.2,0.2,0.2,0.4c0,0.2,0,0.3-0.1,0.5
			c-0.1,0.2-0.2,0.3-0.4,0.4c-0.2,0.1-0.4,0.1-0.6,0c0.1,0.1,0.2,0.2,0.2,0.3c0,0.1,0.1,0.3,0.1,0.6l0.1,0.7l-0.7-0.3L-72-422
			c0-0.3-0.1-0.4-0.1-0.5c0-0.1-0.1-0.1-0.1-0.2c-0.1,0-0.1-0.1-0.3-0.1l-0.1,0l-0.5,1.1l-0.6-0.2l1.1-2.7L-71.4-424.2z M-75.4-426
			l1.2,0.5c0.3,0.1,0.5,0.2,0.6,0.3c0.1,0.1,0.2,0.2,0.2,0.4c0,0.2,0,0.3,0,0.5c-0.1,0.2-0.2,0.4-0.4,0.4c-0.2,0.1-0.4,0.1-0.6,0
			c0.1,0.1,0.2,0.2,0.2,0.3c0,0.1,0.1,0.3,0.1,0.6l0.1,0.7l-0.7-0.3l-0.2-0.7c-0.1-0.3-0.1-0.4-0.1-0.5c0-0.1-0.1-0.1-0.1-0.2
			c0,0-0.1-0.1-0.3-0.1l-0.1,0l-0.4,1.1l-0.6-0.2L-75.4-426z M-78.5-426.3l0.6,0l1.2,2.9l-0.6,0l-0.3-0.7l-1.2,0l-0.2,0.7l-0.6,0
			L-78.5-426.3z M-81.9-425.4c0.2-0.1,0.4-0.2,0.5-0.2c0.1,0,0.2,0,0.3,0c0.1,0,0.2,0.1,0.3,0.1c0.1,0.1,0.2,0.2,0.2,0.3
			c0.1,0.1,0.1,0.3,0.1,0.4c0,0.1-0.1,0.3-0.2,0.4c0.2,0,0.3,0,0.5,0.1c0.1,0.1,0.2,0.2,0.3,0.3c0.1,0.1,0.1,0.3,0.1,0.4
			c0,0.1,0,0.3-0.1,0.4c-0.1,0.1-0.2,0.2-0.3,0.3c-0.1,0-0.3,0.2-0.6,0.3l-0.9,0.4l-1.3-2.6L-81.9-425.4z M-83.9-424.1l1.9,2.2
			l-0.4,0.4l-1.9-2.2L-83.9-424.1z"/>
		<path id="path3134-1" inkscape:connector-curvature="0" class="st0" d="M-81.2-424.4c0.1-0.1,0.1-0.1,0.2-0.2c0-0.1,0-0.2,0-0.2
			c0-0.1-0.1-0.1-0.2-0.2c-0.1,0-0.2,0-0.2,0c-0.1,0-0.2,0.1-0.5,0.2l-0.3,0.1l0.3,0.6l0.3-0.2C-81.4-424.3-81.3-424.4-81.2-424.4
			L-81.2-424.4z"/>
		<path id="path3138-1" inkscape:connector-curvature="0" class="st0" d="M-60.6-407.3c-0.1,0-0.1-0.1-0.2-0.1c-0.1,0-0.1,0-0.2,0
			c-0.1,0-0.1,0.1-0.1,0.1c0,0.1,0,0.2,0,0.3l0,0.3l0.7,0l0-0.3c0-0.1,0-0.2,0-0.3C-60.5-407.2-60.5-407.3-60.6-407.3L-60.6-407.3z"
			/>
		<path id="path3140-5" inkscape:connector-curvature="0" class="st0" d="M-61.6-409.1c0,0-0.1-0.1-0.1-0.1c0,0-0.1,0-0.2,0
			c-0.1,0-0.2,0-0.2,0.1c0,0-0.1,0.1-0.1,0.2c0,0,0,0.1,0,0.3l0,0.3l0.6,0l0-0.3C-61.6-409-61.6-409.1-61.6-409.1L-61.6-409.1z"/>
		<path id="path3142-9" inkscape:connector-curvature="0" class="st0" d="M-58.6-401.1c1.4-3,1.3-7.4,1.3-8.6
			c-1.1-0.8-2.1-1.7-3-2.7c-3-0.1-6,1.4-6,1.4c2.1,3.2,0.3,8.2,0.3,8.2c-1.5,5,0.9,7.5,0.9,7.5c2.8,3.7,8,2.3,8,2.3
			C-61.2-395.4-58.6-401.1-58.6-401.1z M-62.5-411.3l0.2,1l0.6-0.1l-0.2-0.9l0.4-0.1l0.2,0.9l0.7-0.1l-0.2-1l0.4-0.1l0.2,1.4
			l-2.5,0.4l-0.2-1.4L-62.5-411.3z M-63.1-402l2.5,0.5l-0.1,0.4l-2.5-0.5L-63.1-402z M-63.4-401.1l0.4,0l-0.1,0.6l2.1,0.2l0,0.4
			l-2.1-0.2l0,0.6l-0.4,0L-63.4-401.1z M-63.5-398.5c0-0.2,0-0.4,0-0.5c0-0.1,0.1-0.2,0.2-0.3c0.1-0.1,0.3-0.1,0.5-0.1
			c0.2,0,0.3,0,0.4,0c0.1,0,0.2,0.1,0.3,0.2c0.1,0.1,0.1,0.1,0.1,0.2c0,0.1,0,0.2,0,0.4l0,0.3l1,0l0,0.4l-2.6,0.1L-63.5-398.5z
			 M-63.4-397.2l0.4-0.1l0.2,1l0.6-0.1l-0.2-0.9l0.4-0.1l0.1,0.9l0.7-0.1l-0.2-1.1l0.4-0.1l0.2,1.4l-2.5,0.4L-63.4-397.2z
			 M-60.4-394.7c-0.1,0.2-0.3,0.3-0.6,0.4l-0.2-0.3c0.2-0.1,0.3-0.1,0.3-0.2c0.1-0.1,0.1-0.2,0-0.3c0-0.1-0.1-0.2-0.2-0.2
			c-0.1,0-0.2,0-0.3,0c-0.1,0-0.1,0-0.1,0.1c0,0-0.1,0.1-0.1,0.2c0,0.1,0,0.2,0,0.3c0,0.2-0.1,0.4-0.1,0.5c-0.1,0.1-0.3,0.3-0.4,0.3
			c-0.1,0-0.2,0-0.4,0c-0.1,0-0.2-0.1-0.3-0.2c-0.1-0.1-0.2-0.2-0.2-0.3c-0.1-0.2,0-0.4,0.1-0.6c0.1-0.2,0.3-0.3,0.5-0.3l0.1,0.4
			c-0.1,0.1-0.2,0.1-0.2,0.2c0,0.1,0,0.1,0,0.3c0,0.1,0.1,0.2,0.2,0.2c0,0,0.1,0,0.2,0c0.1,0,0.1,0,0.1-0.1c0-0.1,0.1-0.2,0.1-0.4
			c0-0.2,0-0.3,0.1-0.4c0-0.1,0.1-0.2,0.2-0.3c0.1-0.1,0.2-0.1,0.4-0.2c0.1,0,0.3,0,0.4,0c0.1,0,0.3,0.1,0.3,0.2
			c0.1,0.1,0.2,0.2,0.2,0.4C-60.3-395.1-60.3-394.9-60.4-394.7L-60.4-394.7z M-60.5-402l-2.5-0.4l0.2-1.4l0.4,0.1l-0.2,1l0.6,0.1
			l0.1-1l0.4,0.1l-0.1,0.9l0.7,0.1l0.2-1.1l0.4,0.1L-60.5-402z M-60.1-405.3l-2-0.2l2,0.6l0,0.4l-2,0.2l2,0.2l0,0.4l-2.6-0.2l0-0.6
			l1.8-0.2l-1.7-0.5l0.1-0.6l2.6,0.2L-60.1-405.3z M-60.1-406.8l0,0.6l-2.6-0.1l0-0.8c0-0.2,0-0.3,0-0.3c0-0.1,0.1-0.1,0.1-0.2
			c0.1-0.1,0.1-0.1,0.2-0.1c0.1,0,0.2-0.1,0.3-0.1c0.1,0,0.2,0,0.3,0.1c0.1,0,0.2,0.1,0.2,0.2c0-0.1,0.1-0.2,0.2-0.3
			c0.1-0.1,0.2-0.1,0.4-0.1c0.1,0,0.2,0,0.3,0.1c0.1,0,0.2,0.1,0.3,0.2c0.1,0.1,0.1,0.1,0.1,0.3C-60.1-407.2-60-407-60.1-406.8
			L-60.1-406.8z M-62.6-408.1l0-0.8c0-0.2,0-0.4,0-0.5c0-0.1,0.1-0.2,0.2-0.2c0.1-0.1,0.2-0.1,0.4-0.1c0.2,0,0.4,0,0.5,0.1
			c0.1,0.1,0.2,0.2,0.3,0.4c0.1-0.1,0.1-0.2,0.2-0.2c0.1-0.1,0.2-0.1,0.4-0.2l0.5-0.3l0,0.5l-0.5,0.3c-0.2,0.1-0.3,0.2-0.4,0.2
			c-0.1,0-0.1,0.1-0.1,0.1c0,0,0,0.1,0,0.2l0,0.1l1.1-0.1l0,0.4L-62.6-408.1z"/>
		<path id="path3144-8" inkscape:connector-curvature="0" class="st0" d="M-61.7-407.3c0,0-0.1-0.1-0.2-0.1c-0.1,0-0.2,0-0.2,0
			c0,0-0.1,0.1-0.1,0.1c0,0,0,0.1,0,0.3l0,0.2l0.6,0l0-0.3c0-0.1,0-0.2,0-0.3C-61.6-407.2-61.6-407.2-61.7-407.3L-61.7-407.3z"/>
		<path id="path3146-4" inkscape:connector-curvature="0" class="st0" d="M-62.4-398.8c0-0.1-0.1-0.1-0.1-0.1c-0.1,0-0.1,0-0.2,0
			c-0.1,0-0.2,0-0.2,0.1c-0.1,0-0.1,0.1-0.1,0.2c0,0.1,0,0.1,0,0.3v0.2l0.7,0l0-0.2C-62.4-398.6-62.4-398.7-62.4-398.8L-62.4-398.8z
			"/>
		<polygon id="polygon3150-8" class="st0" points="-12.9,-451 -12.3,-451.8 -11.9,-452.3 -10.3,-454.1 -10.3,-455.8 -12.6,-453.1 
			-13,-452.7 -13.6,-451.9 -14,-451.4 -15.8,-449.3 -15.8,-447.7 -13.3,-450.6 		"/>
		<polygon id="polygon3152-1" class="st0" points="-13.6,-474.6 -15.8,-472.9 -15.8,-471.3 -12.8,-473.7 		"/>
		<polygon id="polygon3154-0" class="st0" points="-15.8,-454.4 -14,-452.4 -13.4,-453.1 -15.8,-456 		"/>
		<path id="path3156-3" inkscape:connector-curvature="0" class="st0" d="M-13.9-429.7l-1.9-2.3c0,0.5,0,1-0.1,1.6l1.1,1.3
			L-13.9-429.7z"/>
		<polygon id="polygon3158-0" class="st0" points="-64.9,-451.9 -65.5,-452.7 -65.9,-453.1 -68.2,-455.8 -68.2,-454.1 -66.6,-452.3 
			-66.2,-451.8 -65.6,-451 -65.2,-450.6 -62.8,-447.7 -62.8,-449.4 -64.5,-451.4 		"/>
		<polygon id="polygon3160-4" class="st0" points="-68.2,-449.5 -68.2,-447.9 -66,-450.6 -66.6,-451.4 		"/>
		<polygon id="polygon3162-4" class="st0" points="-62.8,-472.9 -64.9,-474.6 -65.7,-473.7 -62.8,-471.3 		"/>
		<path id="path3164-4" inkscape:connector-curvature="0" class="st0" d="M-63.7-429.2l1-1.2c-0.1-0.5-0.1-1-0.1-1.6l-1.9,2.2
			L-63.7-429.2z"/>
		<polygon id="polygon3166-4" class="st0" points="-42.2,-473 -40.9,-473 -39.6,-474.4 -40.3,-475.1 		"/>
		<polygon id="polygon3168-7" class="st0" points="-62.8,-454.4 -62.8,-456 -65.1,-453.1 -64.5,-452.4 		"/>
		<path id="path3170-6" inkscape:connector-curvature="0" class="st0" d="M-66.2-428.8l0.5,0.3l1,0.6l0.5,0.3l2.3,1.3
			c-0.1-0.4-0.2-0.8-0.3-1.3l-1.3-0.8l-0.5-0.3l-1-0.5l-0.5-0.3l-2.5-1.5c0,0.4,0.1,0.8,0.1,1.2L-66.2-428.8z"/>
		<path id="path3172-3" inkscape:connector-curvature="0" class="st0" d="M-11.2-426.5l-1.3-1.5l-1,0.6l1.9,2.3
			C-11.4-425.6-11.3-426.1-11.2-426.5z"/>
		<path id="path3174-1" inkscape:connector-curvature="0" class="st0" d="M-36.4-409.4c-0.5,0.1-0.9,0.1-1.4,0.1l-0.9,1l0.6,0.7
			L-36.4-409.4z"/>
		<polygon id="polygon3176-7" class="st0" points="-10.3,-448 -10.3,-449.6 -11.9,-451.4 -12.5,-450.6 		"/>
		<path id="path3178-5" inkscape:connector-curvature="0" class="st0" d="M-10.5-431l-2.5,1.4l-0.5,0.3l-1,0.5l-0.5,0.3l-1.4,0.8
			c-0.1,0.4-0.2,0.9-0.3,1.3l2.3-1.3l0.5-0.3l1-0.6l0.5-0.3l1.8-1C-10.5-430.2-10.5-430.6-10.5-431L-10.5-431z"/>
		<path id="path3180-9" inkscape:connector-curvature="0" class="st0" d="M-65.1-427.5l-1-0.6l-1.3,1.6c0.1,0.4,0.2,0.9,0.3,1.3
			L-65.1-427.5z"/>
		<polygon id="polygon3182-6" class="st0" points="-11.5,-474.8 -12.3,-475.7 -12.7,-476.2 -14.2,-478 -15.6,-478 -13.5,-475.5 
			-13.1,-475 -12.4,-474.1 -12,-473.6 -10.3,-471.7 -10.3,-473.5 -11.1,-474.4 		"/>
		<path id="path3184-2" inkscape:connector-curvature="0" class="st0" d="M-38.1-406.6l-0.4-0.5l-0.6-0.7l-0.4-0.5l-0.8-1
			c-0.5,0-1-0.1-1.4-0.1l1.6,1.9l0.4,0.5l0.6,0.7l0.4,0.5l1.2,1.4c0.4,0,0.8-0.1,1.2-0.1L-38.1-406.6z"/>
		<polygon id="polygon3186-1" class="st0" points="-11,-475.2 -10.3,-475.8 -10.3,-477.3 -11.8,-476.1 		"/>
		<polygon id="polygon3188-7" class="st0" points="-67.5,-475.2 -66.7,-476.1 -68.2,-477.4 -68.2,-475.8 		"/>
		<path id="path3190-8" inkscape:connector-curvature="0" class="st0" d="M-40.3-406.6l-1.9,2.1c0.4,0,0.8,0.1,1.2,0.1l1.3-1.4
			L-40.3-406.6z"/>
		<polygon id="polygon3192-5" class="st0" points="-38.7,-476.8 -38.1,-476 -36.3,-478 -37.6,-478 		"/>
		<polygon id="polygon3194-7" class="st0" points="-66.1,-474.1 -65.3,-475 -65,-475.5 -62.9,-478 -64.3,-478 -65.8,-476.2 
			-66.2,-475.7 -67,-474.8 -67.4,-474.4 -68.2,-473.4 -68.2,-471.7 -66.5,-473.6 		"/>
		<polygon id="polygon3196-4" class="st0" points="-37.6,-473 -36.3,-473 -38.1,-475.1 -38.5,-475.6 -39.2,-476.3 -39.6,-476.8 
			-40.6,-478 -41.9,-478 -40.2,-476 -39.9,-475.6 -39.2,-474.8 -38.8,-474.3 		"/>
		<path id="path3200-1" inkscape:connector-curvature="0" class="st0" d="M-16.6-452.7h-45.4v1.4H-40v20.8h-21.8
			c0.1,0.5,0.1,1,0.2,1.4h44.7c0.1-0.5,0.1-0.9,0.2-1.4h-21.8v-20.8h22L-16.6-452.7L-16.6-452.7z"/>
		<polygon id="polygon3202-8" class="st0" points="-13,-453.6 -10.3,-456.7 -10.3,-470.8 -12.5,-473.3 -15.8,-470.5 -15.8,-457 		
			"/>
		<polygon id="polygon3204-5" class="st0" points="-37.7,-475.6 -35.5,-473 -16.6,-473 -14,-475.1 -16.4,-478 -35.5,-478 		"/>
		<path id="path3206-9" inkscape:connector-curvature="0" class="st0" d="M-68.2-433.3c0,0.5,0,1,0,1.5l3,1.7l2.4-2.9v-13.9
			l-2.8-3.3l-2.6,3.1V-433.3z"/>
		<polygon id="polygon3208-7" class="st0" points="-65.5,-453.6 -62.8,-456.9 -62.8,-470.5 -66,-473.3 -68.2,-470.7 -68.2,-456.8 		
			"/>
		<polygon id="polygon3210-5" class="st0" points="-40.7,-475.6 -42.7,-478 -62.1,-478 -64.5,-475.1 -61.9,-473 -43,-473 		"/>
		<path id="path3212-3" inkscape:connector-curvature="0" class="st0" d="M-10.3-433.3v-13.8l-2.6-3l-2.9,3.4v13.8l2.5,2.9l2.9-1.7
			C-10.4-432.2-10.3-432.7-10.3-433.3L-10.3-433.3z"/>
		<path id="path3214-8" inkscape:connector-curvature="0" class="st0" d="M-20.4-411.4c0.7-0.6,1.4-1.3,2-1.9c0,0,0.1-0.1,0.1-0.1
			l0.1-0.1c0.3-0.3,0.5-0.6,0.8-0.8c0.1-0.1,0.1-0.2,0.2-0.3c0.3-0.3,0.5-0.6,0.8-0.9l0.1-0.1c0.3-0.4,0.6-0.7,0.8-1.1
			c0,0,0.1-0.1,0.1-0.1l0.1-0.1c0.2-0.3,0.4-0.6,0.6-0.9c0.1-0.1,0.1-0.2,0.2-0.3c0.2-0.3,0.4-0.6,0.5-0.9l0.1-0.1
			c0-0.1,0.1-0.1,0.1-0.2c0.2-0.4,0.4-0.8,0.6-1.2c0,0,0-0.1,0.1-0.1l0-0.1c0.2-0.4,0.3-0.7,0.5-1.1c0.1-0.1,0.1-0.2,0.1-0.4l0,0
			c0.1-0.3,0.2-0.6,0.4-0.9l0-0.1c0-0.1,0.1-0.2,0.1-0.3c0.1-0.3,0.2-0.5,0.2-0.7l-2.2-2.7l-3,1.7c-2.7,8.3-10,14.4-18.5,15.8
			l-2.3,2.5l2.1,2.5c3.1-0.4,6.1-1.3,8.9-2.7c0.4-0.2,0.8-0.4,1.2-0.6l0.2-0.1c0.4-0.2,0.7-0.4,1.1-0.6l0.1-0.1
			c0.8-0.5,1.6-1,2.3-1.6l0.2-0.1c0.3-0.2,0.6-0.5,0.9-0.7L-20.4-411.4z"/>
		<path id="path3216-8" inkscape:connector-curvature="0" class="st0" d="M-40.7-407.1l-2.1-2.5c-8.7-1.3-16.1-7.5-18.8-15.9l-3-1.7
			l-2.3,2.7c3.4,10.7,12.9,18.5,23.9,19.9L-40.7-407.1z"/>
		<polygon id="polygon3222-3" class="st0" points="-14.4,-451.9 -15.8,-453.5 -15.8,-450.3 		"/>
		<polygon id="polygon3224-1" class="st0" points="-67,-451.8 -68.2,-453.2 -68.2,-450.5 		"/>
		<path id="path3226-8" inkscape:connector-curvature="0" class="st0" d="M-62.5-429.5l-0.6,0.7l0.8,0.5
			C-62.4-428.8-62.5-429.2-62.5-429.5z"/>
		<polygon id="polygon3228-9" class="st0" points="-11.5,-451.8 -10.3,-450.5 -10.3,-453.1 		"/>
		<path id="path3230-6" inkscape:connector-curvature="0" class="st0" d="M-66.6-428.3l-1.3-0.7c0.1,0.6,0.2,1.3,0.3,1.9
			L-66.6-428.3z"/>
		<polygon id="polygon3232-4" class="st0" points="-64.1,-451.9 -62.8,-450.3 -62.8,-453.4 		"/>
		<polygon id="polygon3234-3" class="st0" points="-39.3,-473 -38.7,-473 -38.7,-473 -38.4,-473 -39.2,-473.9 -40.1,-473 		"/>
		<path id="path3236-3" inkscape:connector-curvature="0" class="st0" d="M-38.7-409.3c-0.2,0-0.4,0-0.6,0c-0.1,0-0.2,0-0.3,0
			l0.4,0.5L-38.7-409.3z"/>
		<path id="path3238-3" inkscape:connector-curvature="0" class="st0" d="M-10.7-429l-1.2,0.7l0.9,1.1
			C-10.9-427.8-10.8-428.4-10.7-429L-10.7-429z"/>
		<path id="path3240-8" inkscape:connector-curvature="0" class="st0" d="M-16.2-428.4l0.8-0.5l-0.6-0.8
			C-16-429.2-16.1-428.8-16.2-428.4L-16.2-428.4z"/>
		<polygon id="polygon3242-6" class="st0" points="-10.5,-478 -13.4,-478 -12.2,-476.6 		"/>
		<polygon id="polygon3244-0" class="st0" points="-10.6,-474.7 -10.3,-474.4 -10.3,-475 		"/>
		<path id="path3246-4" inkscape:connector-curvature="0" class="st0" d="M-40.1-404.4c0.3,0,0.6,0,0.9,0c0.3,0,0.6,0,0.9,0l-0.9-1
			L-40.1-404.4z"/>
		<polygon id="polygon3248-8" class="st0" points="-68,-478 -66.3,-476.6 -65.1,-478 		"/>
		<polygon id="polygon3250-8" class="st0" points="-67.9,-474.7 -68.2,-475 -68.2,-474.4 		"/>
		<polygon id="polygon3252-8" class="st0" points="-38.5,-478 -39.8,-478 -39.1,-477.3 		"/>
		<path id="path3258-9" inkscape:connector-curvature="0" class="st0" d="M-69.8-479.7c-1.7,1.7-3.5,0.7-3.5,0.7
			c2.9-4.3-2.2-8.3-2.2-8.3c-1.4,3.5,1.2,5.2,1.2,5.2c-0.9,5.6,2.9,6,2.9,6c0.1,3.9-3.3,4.4-3.3,4.4c1.6,3.5-1,5.2-1,5.2
			c-0.3-0.5-1.8-0.8-1.8-0.8c-3,0.3-3.5-0.9-3.5-0.9c-0.3,1.7-1.9,2.4-1.9,2.4c0.5,5,6.2,5.8,6.2,5.8c-0.8,4.8-5.6,3.1-5.6,3.1
			c-0.3,0.5-0.3,1.6-0.3,1.6c-2.4-0.5-3.8-2.2-3.8-2.2c0,2.5,2.8,3.7,2.8,3.7c2.7,1.4,2.3,3.2,2.3,3.2c-1.7-0.6-2.5,0.2-2.5,0.2
			c-0.8,5.8-4.4,6-4.4,6c-0.4,0.1-0.7,0.1-1,0.1c0,1.4,0.6,9.6,11.4,14.8c0,0,5.4,2.5,9.6,2.5c-0.1-0.6-0.2-1.2-0.3-1.7
			c-8.2-4.6-12.8-12.9-12.8-13l-0.9-1.7l1.4,1.3c3.2,3.1,5.4,3.3,6,3.3c0.1,0,0.2,0,0.2,0l0.2,0l0.1,0.2c1.3,2.5,4.1,4.8,5.4,5.8
			c0-0.1,0-0.2,0-0.3v-2.5c-10.4-7.4-10.8-12.9-10.8-13.1l0-0.7l0.5,0.4c2.3,1.9,4.9,2,5.6,2c0.1,0,0.2,0,0.2,0l0.2,0l0.1,0.2
			c1,3.4,3.2,5.5,4.2,6.3V-457l-2.9-2.3l2.8-3.6l-5-4l2.8-3.6l2.2,1.8v-10.1C-69-478.8-69.4-479.2-69.8-479.7L-69.8-479.7z"/>
		<path id="path3260-7" inkscape:connector-curvature="0" class="st0" d="M9.8-444.5c0,0-3.7-0.2-4.4-6c0,0-0.8-0.8-2.5-0.2
			c0,0-0.4-1.8,2.3-3.2c0,0,2.8-1.1,2.8-3.7c0,0-1.4,1.8-3.8,2.2c0,0-0.1-1.1-0.3-1.6c0,0-4.8,1.7-5.6-3.1c0,0,5.8-0.9,6.2-5.8
			c0,0-1.6-0.7-1.9-2.4c0,0-0.5,1.1-3.5,0.9c0,0-1.5,0.3-1.8,0.8c0,0-2.6-1.8-1-5.2c0,0-3.4-0.4-3.3-4.4c0,0,3.7-0.3,2.9-6
			c0,0,2.6-1.6,1.2-5.2c0,0-5.2,4-2.2,8.3c0,0-1.8,1-3.5-0.7c-0.4,0.5-0.8,0.9-0.8,0.9h0v10.1l2.2-1.8l2.9,3.6l-5,4l2.8,3.6
			l-2.9,2.3v16.4c1-0.8,3.2-2.9,4.2-6.3l0.1-0.2l0.2,0c0,0,0.1,0,0.2,0c0.7,0,3.3-0.1,5.6-2l0.5-0.4l0,0.7c0,0.2-0.4,5.7-10.8,13.1
			v2.5c0,0.1,0,0.2,0,0.3c1.3-1,4.2-3.2,5.4-5.8L-4-439l0.2,0c0,0,0.1,0,0.2,0c0.6,0,2.8-0.2,6-3.3l1.4-1.3l-0.9,1.7
			c0,0.1-4.6,8.4-12.8,13c-0.1,0.6-0.2,1.2-0.3,1.7c4.3,0,9.6-2.5,9.6-2.5c10.8-5.3,11.4-13.4,11.4-14.8
			C10.5-444.4,10.2-444.5,9.8-444.5L9.8-444.5z"/>
		<path id="path3262-7" inkscape:connector-curvature="0" class="st0" d="M-61.5-428.4c0.1,0.7,0.3,1.3,0.5,1.9
			c2.8,9.7,11.7,16.4,21.8,16.4c10.1,0,19-6.7,21.8-16.4c0.2-0.6,0.3-1.3,0.5-1.9H-61.5z M-26.4-422.5c-0.1,0-3.7,0.8-3.4,3.7
			c0.3,0.1,0.6,0.3,0.8,0.4l0.2,0.1l-0.1,0.2c0,0-1.1,3.2-3.6,5.2c-0.1,0-1.7,1.2-6.3,1.4c-0.1,0-0.2,0-0.3,0h-0.2h-0.2
			c-0.1,0-0.2,0-0.3,0c-4.6-0.1-6.2-1.3-6.3-1.4c-2.4-2-3.6-5.1-3.6-5.2l-0.1-0.2l0.2-0.1c0.2-0.1,0.5-0.2,0.8-0.4
			c0.3-2.9-3.4-3.7-3.4-3.7l-0.6-0.1l0.5-0.3c0.6-0.4,1.3-0.5,1.9-0.5c0.7,0,1.2,0.2,1.5,0.4c0.5-1,1.7-1.3,1.7-1.3l0.3-0.1v0.3
			c-0.1,3.4,1.9,4.1,2.2,4.2c0.5-0.1,1-0.1,1.5-0.2c-0.9-0.4-1.5-1-1.9-1.7c-0.6-1.2-0.2-2.5-0.1-2.5l0.1-0.2l0.2,0.1
			c2.8,1.3,2.7,3.6,2.6,4.3c0.3,0,0.5,0,0.8-0.1c0-3.7-3.3-5.2-3.4-5.2l-0.4-0.2l0.4-0.2c0.7-0.4,1.5-0.6,2.3-0.6
			c0.9,0,1.7,0.3,2.1,0.5c0.1-1,0.6-1.6,1-2l0,0h0c0,0,0.1-0.1,0.2-0.1c0,0,0,0,0.1,0c0,0,0,0,0.1,0c0.1,0,0.1,0.1,0.2,0.1h0l0,0
			c0.4,0.4,0.9,1,1,2c0.4-0.2,1.1-0.5,2.1-0.5c0.8,0,1.5,0.2,2.3,0.6l0.4,0.2l-0.4,0.2c0,0-3.4,1.5-3.4,5.2c0.2,0,0.5,0,0.8,0.1
			c-0.1-0.6-0.2-3,2.6-4.3l0.2-0.1l0.1,0.2c0,0,0.4,1.3-0.1,2.5c-0.4,0.7-1,1.3-1.9,1.7c0.5,0.1,1,0.1,1.5,0.2
			c0.3-0.1,2.2-0.7,2.2-4.2l0-0.3l0.3,0.1c0.1,0,1.2,0.3,1.7,1.3c0.3-0.2,0.8-0.4,1.5-0.4c0.6,0,1.3,0.2,1.9,0.5l0.5,0.3
			L-26.4-422.5z"/>
		<path id="path3264-6" inkscape:connector-curvature="0" class="st0" d="M-39.2-427.8h0.1h0.1l0.1-0.2c0,0,0,0,0,0l0,0
			C-39-428-39.1-427.9-39.2-427.8c0-0.1-0.1-0.2-0.2-0.2l0,0c0,0,0,0,0,0L-39.2-427.8L-39.2-427.8z"/>
		<path id="path3404-4" inkscape:connector-curvature="0" class="st0" d="M-39.3-550.2c-46.3,0-84,37.7-84,84s37.7,84,84,84
			c46.3,0,84-37.7,84-84S7-550.2-39.3-550.2z M-39.3-384.4c-45.1,0-81.8-36.7-81.8-81.7c0-45.1,36.7-81.8,81.8-81.8
			s81.8,36.7,81.8,81.8C42.5-421.1,5.8-384.4-39.3-384.4z"/>
		<path id="path3406-3" inkscape:connector-curvature="0" class="st0" d="M-39.3-578.7c-62,0-112.5,50.5-112.5,112.5
			s50.5,112.5,112.5,112.5c62,0,112.5-50.5,112.5-112.5S22.7-578.7-39.3-578.7z M-39.3-355.9c-60.8,0-110.3-49.5-110.3-110.3
			c0-60.8,49.5-110.3,110.3-110.3C21.5-576.5,71-527,71-466.2C71-405.4,21.5-355.9-39.3-355.9z"/>
		<path id="path3408-0" inkscape:connector-curvature="0" class="st0" d="M-119.7-420.3c-0.5-0.2-1.1-0.4-2-0.6l-0.1,0l-0.1,0.7
			l0.1,0c0.7,0.1,1.3,0.3,1.7,0.5c0.7,0.3,1.2,0.8,1.6,1.4c0.6,1,0.6,2-0.3,3.1c-0.4,0.6-1.1,1.1-2,1.7c-1.2,0.7-2.3,1.2-3.2,1.3
			c-0.9,0.1-1.6-0.3-2.1-1.1c-0.4-0.7-0.5-1.6-0.2-2.6c0.2-0.5,0.5-1.2,0.9-1.8l0,0l-0.3-0.4l-3,1.9l0.3,0.5l0.1,0
			c0.1,0,0.3-0.1,0.5,0c0.2,0,0.3,0.1,0.4,0.2c0,0,0.1,0.2,0.3,1c0.1,0.7,0.4,1.3,0.7,1.8c0.8,1.2,1.8,2,3.1,2.4
			c0.4,0.1,0.9,0.2,1.3,0.2c1,0,1.9-0.3,2.9-0.9c1.4-0.8,2.2-2,2.4-3.5c0.2-1.3-0.1-2.6-0.8-3.9
			C-118.1-419.3-118.8-419.9-119.7-420.3L-119.7-420.3z"/>
		<path id="path3410-3" inkscape:connector-curvature="0" class="st0" d="M-129.3-421.2l6.4-3.1c0.4-0.2,0.7-0.2,0.9,0
			c0.2,0.1,0.3,0.4,0.5,0.7l0,0.1l0.5-0.2l-2.3-4.7l0-0.1l-0.5,0.2l0,0.1c0.2,0.4,0.3,0.7,0.3,1c0,0.2-0.2,0.4-0.5,0.6l-6.4,3.1
			c-0.4,0.2-0.7,0.2-0.9,0c-0.1-0.1-0.3-0.4-0.5-0.8l0-0.1l-0.5,0.2l2.3,4.7l0,0.1l0.5-0.2l0-0.1c-0.2-0.4-0.3-0.7-0.3-0.9
			C-129.8-420.8-129.6-421-129.3-421.2L-129.3-421.2z"/>
		<path id="path3412-0" inkscape:connector-curvature="0" class="st0" d="M-133.1-427.7c0-0.1,0.2-0.3,0.9-0.5l4.6-1.7
			c0.8-0.3,1.4-0.7,1.8-1.2c0.7-1,0.8-2.2,0.2-3.9c-0.5-1.2-1.1-2-2-2.4c-0.9-0.3-1.9-0.3-3.1,0.1l-4.4,1.6
			c-0.4,0.2-0.7,0.2-0.9,0.1c-0.2-0.1-0.4-0.3-0.6-0.7l0-0.1l-0.5,0.2l1.2,3.2l0.5-0.2l0-0.1c-0.1-0.5-0.2-0.9-0.1-1.1
			c0.1-0.2,0.4-0.4,0.9-0.6l4.2-1.5c0.8-0.3,1.4-0.4,1.9-0.3c0.9,0.1,1.5,0.6,1.9,1.7c0.3,0.8,0.2,1.5-0.4,2
			c-0.3,0.3-0.8,0.6-1.5,0.8l-4.6,1.7c-0.5,0.2-0.9,0.2-1,0.1c-0.2-0.1-0.4-0.4-0.6-0.9l0-0.1l-0.5,0.2l1.8,4.8l0.5-0.2l0-0.1
			C-133.2-427.4-133.1-427.6-133.1-427.7L-133.1-427.7z"/>
		<path id="path3414-9" inkscape:connector-curvature="0" class="st0" d="M-136.7-440.4l7-1.6c0.4-0.1,0.6,0,0.8,0.2
			c0.1,0.1,0.2,0.4,0.3,0.7l0,0.1l0.5-0.1l-1-4.6c-0.4-1.7-1.2-2.9-2.4-3.6c-1.1-0.7-2.3-0.8-3.6-0.6c-1.5,0.3-2.5,1-3.2,2.1
			c-0.7,1.2-0.9,2.7-0.5,4.4l1,4.4l0,0.1l0.5-0.1l0-0.1c0-0.4,0-0.6,0-0.8C-137.2-440.2-137-440.3-136.7-440.4L-136.7-440.4z
			 M-137.8-442.9c-0.2-0.1-0.3-0.3-0.4-0.6c-0.2-1.1,0.1-2,1.2-2.7c0.6-0.5,1.5-0.8,2.5-1c0.8-0.2,1.5-0.3,2.1-0.3
			c0.6,0,1.1,0.1,1.5,0.3c0.7,0.4,1.1,1,1.3,1.9c0.1,0.3,0.1,0.5,0,0.6c-0.1,0.1-0.3,0.2-0.6,0.3l-7,1.6
			C-137.5-442.8-137.7-442.8-137.8-442.9L-137.8-442.9z"/>
		<path id="path3416-2" inkscape:connector-curvature="0" class="st0" d="M-131.6-453.5c0.3,0.2,0.5,0.4,0.5,0.8l0,0.1l0.5,0
			l-0.3-3.2l-0.5,0.1v0.1c0,0.3,0,0.6,0,0.7c-0.1,0.3-0.2,0.4-0.3,0.4c-0.2,0-0.4,0-0.8-0.1c-0.2,0-0.6-0.1-1.1-0.3l-0.3-3.2
			l0.8-0.4c0.2-0.1,0.3-0.2,0.5-0.2c0.2-0.1,0.4-0.1,0.5-0.2c0.2,0,0.4,0,0.4,0.1c0.1,0.1,0.1,0.4,0.2,0.9l0,0.1l0.5,0l-0.4-4.9
			l-0.5,0l0,0.1c0,0.3,0,0.6-0.3,0.7c-0.2,0.2-0.8,0.5-1.6,1l-7.4,4l0,0l0,0.5l8.3,2.6C-132.2-453.8-131.8-453.7-131.6-453.5
			L-131.6-453.5z M-137.7-456.3l3.1-1.6l0.2,2.6L-137.7-456.3L-137.7-456.3z"/>
		<path id="path3418-5" inkscape:connector-curvature="0" class="st0" d="M-141-464.9c0-0.4,0.1-0.6,0.2-0.8
			c0.1-0.2,0.4-0.3,0.7-0.3l7.3,0.3c0.4,0,0.6,0.2,0.7,0.4c0.1,0.2,0.1,0.4,0.1,0.8v0.1l0.5,0l0.2-4.7c0.1-1.7-0.4-3.1-1.4-4.1
			c-0.9-0.9-2-1.4-3.4-1.5c-1.5-0.1-2.7,0.3-3.6,1.2c-1,0.9-1.6,2.3-1.6,4.2l-0.2,4.6L-141-464.9L-141-464.9z M-136.6-472.1
			c0.1,0,0.2,0,0.4,0c1.7,0.1,2.9,0.4,3.4,1c0.6,0.6,0.8,1.3,0.8,2.1c0,0.3-0.1,0.5-0.2,0.6c-0.1,0.1-0.3,0.1-0.6,0.1l-7.2-0.3
			c-0.3,0-0.5-0.1-0.6-0.1c-0.1-0.1-0.2-0.3-0.2-0.7c0-1.1,0.6-1.9,1.8-2.3C-138.2-472-137.4-472.1-136.6-472.1L-136.6-472.1z"/>
		<path id="path3420-4" inkscape:connector-curvature="0" class="st0" d="M-139.5-483.5c0.1-0.4,0.2-0.7,0.3-0.8
			c0.2-0.2,0.5-0.3,0.9-0.2l6.9,1.5c0.4,0.1,0.6,0.3,0.7,0.6c0,0.2,0,0.5,0,0.8l0,0.1l0.5,0.1l1-4.7c0.3-1.2,0.2-2.3-0.1-3.2
			c-0.3-0.9-0.9-1.4-1.7-1.6c-0.9-0.2-1.7,0.1-2.3,0.7c-0.3,0.3-0.6,0.7-0.8,1.2l0,0c0-0.5-0.1-1-0.4-1.5c-0.3-0.5-0.7-0.9-1.3-1
			c-1-0.2-1.8,0.2-2.4,1.2c-0.3,0.5-0.6,1.2-0.8,2.1l-1,4.5L-139.5-483.5L-139.5-483.5z M-138.4-487.9c0.1-0.5,0.4-0.9,0.7-1
			c0.2-0.1,0.4-0.1,0.6-0.1c0.2,0,0.5,0,0.8,0.1c0.7,0.2,1.2,0.4,1.4,0.8c0.2,0.3,0.2,0.9,0,1.8l-3.1-0.7c-0.2-0.1-0.4-0.1-0.5-0.3
			C-138.5-487.4-138.5-487.6-138.4-487.9L-138.4-487.9z M-134.3-486.2c0.2-0.7,0.4-1.2,0.6-1.6c0.4-0.5,1.2-0.6,2.2-0.4
			c0.7,0.2,1.1,0.4,1.4,0.7c0.3,0.3,0.4,0.8,0.2,1.5c-0.1,0.3-0.2,0.5-0.4,0.6c-0.1,0-0.3,0-0.5,0L-134.3-486.2z"/>
		<path id="path3422-0" inkscape:connector-curvature="0" class="st0" d="M-136.7-495.4c0.2-0.4,0.3-0.6,0.4-0.8
			c0.2-0.2,0.5-0.2,0.9-0.1l6.7,2.3c0.4,0.1,0.6,0.3,0.6,0.6c0,0.2,0,0.5-0.1,0.8l0,0.1l0.5,0.2l2.9-8.2l0-0.1l-3.1-1.7l-0.2,0.5
			l0,0c0.9,0.8,1.4,1.5,1.6,2.2c0.2,0.7,0.1,1.4-0.2,2.3c-0.2,0.5-0.3,0.7-0.5,0.9c-0.1,0.1-0.3,0.1-0.6,0l-6.5-2.3
			c-0.5-0.2-0.8-0.4-0.9-0.6c-0.1-0.2,0-0.6,0.2-1.2l0-0.1l-0.5-0.2l-1.8,5L-136.7-495.4L-136.7-495.4z"/>
		<path id="path3424-5" inkscape:connector-curvature="0" class="st0" d="M-124.5-503.8c0.2,0.3,0.2,0.6,0,0.9l0,0.1l0.5,0.2
			l1.4-2.8l0-0.1l-0.5-0.2l0,0.1c-0.2,0.3-0.3,0.5-0.4,0.6c-0.2,0.2-0.4,0.2-0.5,0.2c-0.1-0.1-0.4-0.3-0.6-0.5
			c-0.1-0.1-0.4-0.4-0.8-0.8l1.4-2.9l0.9,0.1c0.2,0,0.4,0,0.5,0c0.2,0,0.4,0.1,0.5,0.1c0.2,0.1,0.3,0.2,0.3,0.3
			c0,0.2-0.1,0.5-0.3,0.9l0,0.1l0.5,0.2l2.2-4.3l0-0.1l-0.5-0.2l0,0.1c-0.1,0.3-0.3,0.4-0.6,0.5c-0.3,0-0.9,0-1.8,0l-8.4-0.5
			l-0.2,0.5l5.7,6.6C-124.9-504.4-124.6-504-124.5-503.8L-124.5-503.8z M-124.8-509.1l-1.2,2.4l-2.3-2.6l0,0L-124.8-509.1z"/>
		<path id="path3426-9" inkscape:connector-curvature="0" class="st0" d="M-121.1-526c0-0.2,0.1-0.5,0.3-0.9l0-0.1l-0.4-0.3
			l-1.9,2.8l0.4,0.3l0-0.1c0.3-0.4,0.6-0.6,0.9-0.7c0.3,0,0.6,0.1,1,0.4l3.4,2.3l-7.8,0.8h0l-1.8,2.7l0.4,0.3l0-0.1
			c0.1-0.1,0.2-0.2,0.3-0.2c0.1,0,0.5-0.1,1.2-0.2l5.7,3.8c0.3,0.2,0.5,0.4,0.5,0.6c0.1,0.2,0,0.5-0.3,1l0,0.1l0.4,0.3l2-2.9
			l-0.4-0.3l0,0.1c-0.3,0.5-0.7,0.7-1,0.7c-0.2,0-0.5-0.1-0.8-0.4l-4.7-3.1l10.1-1h0l0.3-0.4l-7.2-4.9
			C-120.9-525.6-121.1-525.9-121.1-526L-121.1-526z"/>
		<path id="path3428-4" inkscape:connector-curvature="0" class="st0" d="M-106.8-531.7l-0.7,0.1l0,0.1c0.1,0.7,0.1,1.3,0,1.7
			c-0.1,0.7-0.4,1.4-0.9,2c-0.8,0.9-1.8,1.1-3,0.6c-0.7-0.3-1.4-0.7-2.2-1.4c-1.1-0.9-1.8-1.8-2.1-2.7s-0.2-1.6,0.4-2.3
			c0.6-0.6,1.4-1,2.4-1c0.6,0,1.2,0.1,2,0.3l0,0l0.3-0.4l-2.6-2.3l-0.1,0l-0.4,0.4l0,0.1c0.1,0.1,0.2,0.3,0.2,0.4
			c0,0.2,0,0.3-0.1,0.4c0,0-0.2,0.1-0.9,0.6c-0.6,0.3-1.1,0.7-1.5,1.2c-0.9,1.1-1.4,2.3-1.4,3.7c0.1,1.5,0.7,2.7,1.9,3.8
			c1,0.9,2.2,1.4,3.4,1.4c0.2,0,0.4,0,0.7,0c1.3-0.2,2.5-0.8,3.4-1.9c0.6-0.7,1-1.6,1.2-2.5C-106.7-530-106.7-530.7-106.8-531.7
			L-106.8-531.7z"/>
		<path id="path3430-6" inkscape:connector-curvature="0" class="st0" d="M-96.8-538.9c-0.2,0.2-0.5,0.3-0.7,0.2
			c-0.3-0.1-0.9-0.3-1.7-0.7l-7.6-3.6l0,0l-0.4,0.3l2.9,8.2c0.2,0.6,0.3,1.1,0.4,1.3c0,0.3-0.1,0.6-0.3,0.9l-0.1,0.1l0.3,0.4
			l2.3-2.1l0.1,0l-0.3-0.4l-0.1,0c-0.2,0.2-0.5,0.4-0.6,0.4c-0.2,0.1-0.4,0.1-0.5,0c-0.1-0.1-0.2-0.4-0.4-0.7
			c-0.1-0.2-0.2-0.5-0.4-1.1l2.4-2.1l0.8,0.4c0.2,0.1,0.4,0.2,0.5,0.2c0.2,0.1,0.3,0.2,0.4,0.3c0.1,0.2,0.2,0.3,0.1,0.4
			c0,0.1-0.2,0.3-0.6,0.7l-0.1,0.1l0.4,0.4l3.7-3.3L-96.8-538.9L-96.8-538.9z M-102.3-538.1l-2,1.8l-1.2-3.3l0,0L-102.3-538.1z"/>
		<path id="path3432-9" inkscape:connector-curvature="0" class="st0" d="M-83.9-547.5c-0.3,0.2-0.5,0.2-0.8,0.1
			c-0.3-0.1-0.8-0.4-1.6-1l-6.9-4.8l0,0l-0.4,0.3l1.5,8.6c0.1,0.7,0.2,1.1,0.1,1.3c0,0.3-0.2,0.6-0.4,0.8l-0.1,0l0.3,0.5l2.7-1.7
			l-0.3-0.4l-0.1,0c-0.3,0.2-0.5,0.3-0.7,0.3c-0.3,0.1-0.4,0-0.5-0.1c-0.1-0.1-0.2-0.4-0.3-0.8c0-0.2-0.1-0.6-0.2-1.1l2.7-1.7
			l0.7,0.5c0.2,0.1,0.3,0.2,0.4,0.3c0.2,0.2,0.3,0.3,0.4,0.4c0.1,0.2,0.1,0.3,0.1,0.4c-0.1,0.1-0.3,0.3-0.7,0.6l-0.1,0l0.3,0.4
			l4.1-2.6l0.1,0L-83.9-547.5L-83.9-547.5z M-89.5-547.6l-2.2,1.4l-0.6-3.4l0,0L-89.5-547.6z"/>
		<path id="path3434-2" inkscape:connector-curvature="0" class="st0" d="M-71.5-556.2L-71.5-556.2c0,1.2-0.2,2.1-0.6,2.7
			c-0.4,0.6-1,1-1.8,1.4c-0.4,0.2-0.7,0.3-0.9,0.2c-0.2,0-0.3-0.2-0.4-0.5l-2.6-6.4c-0.2-0.5-0.3-0.9-0.1-1c0.1-0.2,0.4-0.4,1-0.6
			l0.1,0l-0.2-0.5l-4.9,2l-0.1,0l0.2,0.5l0.1,0c0.4-0.1,0.7-0.2,0.8-0.2c0.3,0,0.5,0.2,0.6,0.6l2.7,6.6c0.1,0.4,0.1,0.7-0.1,0.9
			c-0.1,0.1-0.4,0.3-0.7,0.5l-0.1,0l0.2,0.5l8-3.3l0.1,0l-0.7-3.5L-71.5-556.2z"/>
		<path id="path3436-2" inkscape:connector-curvature="0" class="st0" d="M-58.4-556.9c-0.3,0.1-0.6,0-0.8-0.1
			c-0.2-0.2-0.6-0.7-1.2-1.4l-5.2-6.6l0,0l-0.5,0.1l-1.1,8.6c-0.1,0.7-0.2,1.1-0.3,1.3c-0.1,0.3-0.3,0.5-0.7,0.6l-0.1,0l0.1,0.5
			l3-0.8l0.1,0l-0.1-0.5l-0.1,0c-0.3,0.1-0.5,0.1-0.7,0.1h0c-0.3,0-0.4-0.1-0.5-0.3c0-0.2-0.1-0.4,0-0.8c0-0.2,0.1-0.6,0.1-1.1
			l3.1-0.8l0.6,0.7c0.1,0.2,0.2,0.3,0.3,0.4c0.1,0.2,0.2,0.3,0.2,0.4c0.1,0.2,0,0.3-0.1,0.4c-0.1,0.1-0.4,0.2-0.9,0.4l-0.1,0
			l0.1,0.5l4.7-1.3l0.1,0L-58.4-556.9L-58.4-556.9z M-63.6-558.7l-2.6,0.7l0.4-3.4l0,0L-63.6-558.7z"/>
		<path id="path3438-4" inkscape:connector-curvature="0" class="st0" d="M-41.7-556.8c-0.2,0.1-0.4,0.1-0.5,0.2
			c-0.1,0-0.3,0.1-0.5,0.1c-0.5,0-1.1-0.1-1.5-0.4c-0.4-0.3-0.8-0.6-1.1-1.1c0.8-0.3,1.4-0.7,1.8-1.1c1.1-1.1,1.6-2.5,1.5-4.2
			c-0.1-1.6-0.7-2.8-1.8-3.7c-1.1-0.9-2.4-1.3-3.9-1.1c-1.6,0.1-2.8,0.7-3.7,1.8c-0.9,1.1-1.3,2.4-1.1,3.9c0.1,1.5,0.8,2.7,1.9,3.6
			c0.6,0.5,1.2,0.8,1.9,1c0.1,0,0.2,0,0.2,0c0,0,0,0,0.1,0.1c0.4,0.8,1,1.3,1.8,1.7c0.7,0.3,1.4,0.4,2.1,0.4c0.1,0,0.3,0,0.4,0
			c0.3,0,0.7-0.1,1-0.2c0.6-0.1,1.1-0.3,1.6-0.6l0.1,0L-41.7-556.8L-41.7-556.8z M-47.4-567.5c0.7,0,1.3,0.3,1.7,1
			c0.5,0.7,0.8,1.9,1,3.4c0.1,1.1,0,2-0.1,2.8c-0.3,1.3-1,2-2,2.1c-0.1,0-0.1,0-0.2,0c-1,0-1.7-0.6-2.1-1.7
			c-0.3-0.7-0.5-1.6-0.6-2.7c-0.1-1.1-0.1-2,0.1-2.7c0.3-1.3,1-2,2.1-2.1C-47.5-567.5-47.5-567.5-47.4-567.5L-47.4-567.5z"/>
		<path id="path3440-7" inkscape:connector-curvature="0" class="st0" d="M-32.4-567.6L-32.4-567.6c0.6,0.1,1,0.2,1.2,0.4
			c0.2,0.2,0.2,0.5,0.2,1l-0.2,4.5c0,0.8-0.2,1.4-0.4,1.9c-0.4,0.7-1.1,1.1-2.1,1.1c-0.1,0-0.1,0-0.2,0c-0.9,0-1.4-0.4-1.7-1.2
			c-0.2-0.4-0.2-1-0.2-1.7l0.2-4.9c0-0.5,0.1-0.9,0.3-1c0.2-0.1,0.5-0.2,1-0.2l0.2,0l0-0.5l-5.1-0.3l0,0.5l0.1,0
			c0.6,0.1,0.8,0.2,0.9,0.3c0.1,0.1,0.2,0.3,0.1,1l-0.3,4.9c0,0.9,0.1,1.6,0.4,2.1c0.6,1.1,1.7,1.6,3.5,1.7c0.1,0,0.2,0,0.4,0
			c1.1,0,2-0.3,2.6-0.9c0.6-0.7,1-1.6,1.1-2.9l0.2-4.7c0-0.4,0.1-0.7,0.2-0.8c0.1-0.1,0.5-0.2,0.9-0.3l0.1,0l0-0.5l-3.4-0.2
			L-32.4-567.6z"/>
		<path id="path3442-7" inkscape:connector-curvature="0" class="st0" d="M-22.4-566.1c0,0,0.1,0,0.3,0c0.1,0,0.3,0,0.6,0.1
			c1.1,0.2,1.9,0.5,2.3,0.9c0.4,0.4,0.6,1.1,0.6,2v0.1l0.5,0.1l0.5-3.1l-8.5-1.5l-0.1,0.5l0.1,0c0.4,0.1,0.7,0.2,0.8,0.3
			c0.2,0.2,0.3,0.5,0.2,0.8l-1.2,7c-0.1,0.4-0.2,0.6-0.5,0.7c-0.2,0.1-0.5,0.1-0.9,0l-0.1,0l-0.1,0.5l8.6,1.5l0.1,0l1.1-3l0-0.1
			l-0.6-0.1l0,0c-0.6,0.9-1.2,1.5-1.9,1.7c-0.6,0.3-1.4,0.3-2.3,0.1c-0.6-0.1-0.8-0.2-0.9-0.3c-0.1-0.1-0.2-0.3-0.1-0.6l0.6-3.4
			c0.8,0.1,1.3,0.4,1.5,0.8c0.3,0.4,0.4,1,0.3,1.8v0.1l0.5,0.1l0.9-5l-0.5-0.1l0,0.1c-0.3,0.8-0.6,1.3-0.9,1.5
			c-0.3,0.2-0.9,0.3-1.6,0.1l0.6-3.3C-22.6-565.9-22.5-566.1-22.4-566.1L-22.4-566.1z"/>
		<path id="path3444-5" inkscape:connector-curvature="0" class="st0" d="M-2.7-561.9L-2.7-561.9c-0.1,0.2-0.2,0.3-0.3,0.3
			c-0.1,0-0.2,0-0.3,0c0,0-0.2-0.1-0.7-0.5c-0.4-0.3-0.9-0.6-1.4-0.8c-1-0.4-1.9-0.3-2.6,0.1c-0.7,0.4-1.2,1-1.4,1.7
			c-0.2,0.6-0.2,1.3,0,1.8c0.2,0.6,0.7,1.2,1.4,2l0.7,0.8c0.4,0.5,0.7,0.8,0.8,1c0.2,0.3,0.2,0.7,0,1.1c-0.1,0.3-0.4,0.6-0.7,0.8
			c-0.3,0.2-0.8,0.2-1.4,0c-0.6-0.2-1.1-0.6-1.4-1.3c-0.3-0.6-0.4-1.5-0.3-2.6l0-0.1l-0.5-0.2L-12-554l0.5,0.2l0,0
			c0.1-0.1,0.2-0.2,0.3-0.3c0.1,0,0.1,0,0.3,0c0,0,0.1,0,0.1,0.1c0.1,0,0.1,0.1,0.2,0.1l0.2,0.2c0.2,0.2,0.5,0.4,0.8,0.5
			c0.3,0.1,0.5,0.3,0.8,0.4c0.6,0.2,1.2,0.3,1.7,0.3c0.5,0,1-0.1,1.3-0.3c0.8-0.4,1.3-1,1.5-1.7c0.3-0.8,0.2-1.5-0.1-2.2
			c-0.2-0.4-0.5-0.8-0.8-1.2l-0.8-0.9c-0.7-0.7-1.1-1.2-1.3-1.5c-0.2-0.3-0.2-0.6,0-1c0.1-0.3,0.3-0.6,0.7-0.7
			c0.3-0.2,0.7-0.1,1.2,0c0.6,0.2,1.1,0.7,1.3,1.3c0.3,0.6,0.4,1.4,0.3,2.1l0,0.1l0.5,0.2l1.1-3.1L-2.7-561.9z"/>
		<path id="path3446-4" inkscape:connector-curvature="0" class="st0" d="M0.9-549.8c-0.1-0.2-0.1-0.5,0-0.8l3-6.4
			c0.2-0.4,0.4-0.6,0.7-0.6c0.1,0,0.4,0,0.9,0.2l0.1,0l0.2-0.5L1-560l-0.1,0l-0.2,0.5l0.1,0c0.4,0.2,0.6,0.4,0.7,0.5
			c0.2,0.2,0.2,0.5,0,0.9l-3,6.4c-0.2,0.4-0.4,0.6-0.7,0.6c-0.2,0-0.5-0.1-0.8-0.2l-0.1,0l-0.2,0.5l4.7,2.2l0.1,0l0.2-0.5l-0.1,0
			C1.3-549.4,1-549.6,0.9-549.8L0.9-549.8z"/>
		<path id="path3448-8" inkscape:connector-curvature="0" class="st0" d="M12.3-546.4L12.3-546.4c-0.9,0.6-1.7,1-2.4,1H9.9
			c-0.7,0-1.4-0.2-2.1-0.7c-0.4-0.2-0.7-0.4-0.7-0.6c-0.1-0.2,0-0.4,0.1-0.6l1.8-3c0.7,0.4,1,0.8,1.1,1.2c0.1,0.4,0,1-0.3,1.8l0,0.1
			l0.5,0.3l2.5-4.3l0-0.1l-0.5-0.3l0,0c-0.5,0.6-1,1-1.4,1.1c-0.4,0.1-0.9,0-1.6-0.4l1.7-2.9c0.1-0.2,0.3-0.3,0.4-0.3
			c0.1,0,0.4,0.1,0.8,0.3c1,0.6,1.6,1.1,1.8,1.6c0.2,0.5,0.1,1.2-0.2,2.1l0,0.1l0.4,0.3l1.6-2.7l-7.3-4.3l-0.1,0l-0.3,0.5l0.1,0
			c0.3,0.2,0.6,0.4,0.6,0.6c0.2,0.2,0.1,0.5-0.1,0.9L5-548.7c-0.2,0.3-0.4,0.5-0.7,0.5c-0.2,0-0.5-0.1-0.8-0.3l-0.1,0L3.1-548
			l7.4,4.4l0.1,0l2.2-2.4L12.3-546.4z"/>
		<path id="path3450-1" inkscape:connector-curvature="0" class="st0" d="M22.8-535.4c0-0.2,0.1-0.5,0.4-0.9l4-5.1
			c0.4-0.5,0.7-0.6,0.8-0.6c0.2,0,0.5,0.1,0.9,0.4l0.1,0l0.3-0.4l-2.9-2.3l0,0l-6.5,3.5l0,0l2-7.1l-2.9-2.3l-0.1,0l-0.3,0.4l0,0
			c0.3,0.3,0.6,0.6,0.6,0.8c0.1,0.2,0,0.4-0.2,0.7l-4.3,5.4c-0.2,0.3-0.5,0.5-0.7,0.5c0,0-0.1,0-0.1,0c-0.2,0-0.5-0.1-0.9-0.4
			l-0.1-0.1l-0.3,0.4l2.7,2.2l0.1,0.1l0.3-0.4l-0.1,0c-0.5-0.4-0.7-0.7-0.7-1c0-0.3,0.1-0.6,0.4-1l4-5L17-539l0,0.1l0.4,0.3l8.1-4.5
			l-4.4,5.5c-0.3,0.3-0.5,0.5-0.7,0.4c-0.2,0-0.5-0.2-0.9-0.4l-0.1,0l-0.3,0.4l3.9,3.1l0.1,0l0.3-0.4l-0.1,0
			C23-534.9,22.8-535.2,22.8-535.4L22.8-535.4z"/>
		<path id="path3452-2" inkscape:connector-curvature="0" class="st0" d="M32.5-531.2c0.6,0.3,1.2,0.3,1.7,0.2
			c0.5-0.1,0.9-0.3,1.3-0.7c0.7-0.7,1-1.4,0.9-2.2c-0.2-0.8-0.7-1.6-1.5-2.5l-3.3-3.4l0-0.1l-0.4,0.4l0,0.1c0.3,0.4,0.4,0.7,0.4,0.9
			c0,0.1-0.1,0.4-0.6,0.8l-4.7,4.5c-0.4,0.3-0.6,0.5-0.9,0.5c-0.2,0-0.5-0.2-0.8-0.5l-0.1-0.1l-0.4,0.4l3.4,3.6l0.1,0.1l0.4-0.4
			l0-0.1c-0.3-0.4-0.5-0.6-0.5-0.9c0-0.2,0.2-0.5,0.5-0.9l1.9-1.8c0.6,0.6,1,1.1,1.4,1.3C31.7-531.6,32.1-531.4,32.5-531.2
			L32.5-531.2z M31.8-532.8c-0.3-0.1-0.8-0.4-1.3-1l2.8-2.7c0.1-0.1,0.2-0.2,0.3-0.1c0.1,0,0.3,0.2,0.5,0.4c0.4,0.4,0.6,0.9,0.4,1.3
			c-0.1,0.4-0.4,0.9-0.9,1.3C32.9-532.9,32.3-532.6,31.8-532.8z"/>
		<path id="path3454-8" inkscape:connector-curvature="0" class="st0" d="M37.8-517.6c-0.1-0.1-0.1-0.2-0.1-0.3c0-0.1,0-0.2,0-0.3
			l1.4-4.9c0.4,0.3,0.8,0.6,1.4,0.7c0.8,0.2,1.5,0.1,2.1-0.4c0.9-0.7,1.1-1.6,0.8-2.8c-0.2-0.6-0.6-1.3-1.2-2.1l-2.8-3.8l0-0.1
			l-0.4,0.3l0,0.1c0.3,0.5,0.4,0.8,0.4,0.9c0,0.2-0.2,0.5-0.7,0.9l-5.2,3.9c-0.4,0.3-0.7,0.4-0.9,0.4c-0.2,0-0.5-0.3-0.8-0.6l0-0.1
			l-0.4,0.3l3,4l0,0.1l0.4-0.3l0-0.1c-0.3-0.4-0.4-0.7-0.4-0.9c0-0.2,0.3-0.5,0.6-0.8l2.1-1.6l-1.5,5.3l0,0l1.9,2.5L37.8-517.6
			L37.8-517.6z M37.7-525.6l2.9-2.2c0.2-0.1,0.3-0.2,0.4-0.1c0.1,0,0.3,0.1,0.5,0.5c0.4,0.6,0.5,1.1,0.2,1.6c-0.2,0.3-0.5,0.6-0.9,1
			c-0.7,0.5-1.3,0.7-1.7,0.6C38.8-524.4,38.3-524.9,37.7-525.6L37.7-525.6z"/>
		<path id="path3456-9" inkscape:connector-curvature="0" class="st0" d="M46.4-519.1l-6.2,3.5c-0.3,0.2-0.6,0.2-0.9,0.1
			c-0.2-0.1-0.3-0.3-0.6-0.7l0-0.1l-0.5,0.3l4.3,7.5l3-1l0.1,0l-0.3-0.5l-0.1,0c-1.1,0.1-1.9,0-2.5-0.3c-0.6-0.3-1.1-0.9-1.6-1.7
			c-0.2-0.4-0.3-0.7-0.3-0.9c0-0.2,0.1-0.3,0.4-0.5l3-1.7c0.4,0.7,0.5,1.2,0.4,1.6c-0.1,0.4-0.5,0.9-1.2,1.4l-0.1,0l0.3,0.5l4.4-2.5
			l0.1,0l-0.2-0.4l-0.1,0c-0.8,0.3-1.4,0.4-1.8,0.3c-0.4-0.1-0.8-0.5-1.1-1.1l2.9-1.6c0.2-0.1,0.4-0.2,0.5-0.1
			c0.1,0,0.2,0.2,0.5,0.6c0.6,1,0.8,1.8,0.7,2.3c-0.1,0.5-0.5,1.1-1.2,1.7l0,0l0.2,0.4l2.6-1.5l0.1,0l-4.2-7.4l0-0.1l-0.5,0.3l0,0.1
			c0.2,0.4,0.3,0.6,0.3,0.8C46.9-519.5,46.7-519.3,46.4-519.1L46.4-519.1z"/>
		<path id="path3458-3" inkscape:connector-curvature="0" class="st0" d="M50.5-499.3c-0.1,0.6-0.2,1.1-0.3,1.3
			c-0.1,0.3-0.4,0.6-0.8,0.7c-0.3,0.1-0.7,0.1-1.1,0c-0.4-0.1-0.7-0.5-0.9-1.1c-0.2-0.6-0.2-1.2,0.1-1.9c0.3-0.6,0.9-1.3,1.8-1.8
			l0.1,0l-0.2-0.5l-3.5,1.3l-0.1,0l0.2,0.5l0.1,0c0.2,0,0.3,0,0.4,0c0.1,0,0.1,0.1,0.2,0.2c0,0,0,0.1,0,0.1c0,0.1,0,0.1,0,0.2l0,0.3
			c0,0.3,0,0.6,0.1,0.9c0,0.3,0.1,0.6,0.2,0.9c0.4,1.2,1.1,2,1.9,2.3c0.5,0.2,0.9,0.3,1.3,0.3c0.3,0,0.7-0.1,1-0.2
			c0.8-0.3,1.3-0.8,1.7-1.5c0.2-0.4,0.3-0.8,0.4-1.4l0.1-1.2c0.1-1,0.2-1.7,0.4-2c0.1-0.3,0.4-0.5,0.8-0.7c0.3-0.1,0.7-0.1,1,0.1
			c0.3,0.2,0.6,0.5,0.7,0.9c0.2,0.6,0.2,1.3-0.1,1.9c-0.3,0.6-0.8,1.2-1.4,1.6l0,0l0.2,0.5l3.1-1.1l0.1,0l-0.2-0.5l-0.1,0
			c-0.1,0-0.3,0-0.4,0c-0.1,0-0.1-0.1-0.2-0.2c0,0,0-0.2-0.1-0.9c0-0.5-0.1-1-0.3-1.5c-0.4-1-1-1.6-1.7-1.9c-0.8-0.3-1.5-0.3-2.2,0
			c-0.6,0.2-1.1,0.6-1.4,1.2c-0.3,0.5-0.5,1.3-0.6,2.4L50.5-499.3z"/>
		<path id="path3460-6" inkscape:connector-curvature="0" class="st0" d="M57.6-493.6l-6.9,1.7c-0.4,0.1-0.7,0-0.9-0.2
			c-0.1-0.1-0.3-0.4-0.4-0.8l0-0.1l-0.5,0.1l2.1,8.4l3.3-0.2l-0.1-0.5l0,0c-1.1-0.2-1.8-0.5-2.3-1c-0.5-0.5-0.8-1.2-1.1-2.1
			c-0.1-0.5-0.1-0.8-0.1-0.9c0.1-0.2,0.2-0.3,0.5-0.3l3.4-0.8c0.2,0.7,0.1,1.3-0.1,1.7c-0.2,0.4-0.8,0.7-1.5,1l-0.1,0L53-487
			l4.9-1.2l0.1,0l-0.1-0.5l-0.1,0c-0.8,0-1.4,0-1.8-0.2c-0.3-0.2-0.6-0.7-0.8-1.4l3.2-0.8c0.2-0.1,0.4,0,0.5,0
			c0.1,0,0.2,0.2,0.3,0.8c0.3,1.1,0.3,1.9,0.1,2.4c-0.2,0.5-0.8,0.9-1.6,1.3l-0.1,0l0.1,0.5l2.9-0.7l0.1,0l-2-8.3l0-0.1l-0.5,0.1
			l0,0.1c0.1,0.4,0.1,0.7,0,0.9C58.2-493.9,58-493.7,57.6-493.6L57.6-493.6z"/>
		<path id="path3462-8" inkscape:connector-curvature="0" class="st0" d="M52.3-472.3l0,0.5l8.9,2.8c0.4,0.1,0.7,0.3,0.9,0.4
			c0.2,0.1,0.3,0.4,0.3,0.7l0,0.1l0.5,0l-0.2-3.2v-0.1l-0.5,0v0.1c0,0.6,0,0.9-0.1,1c-0.1,0.1-0.2,0.2-0.4,0.2c-0.1,0-0.2,0-0.4-0.1
			c-0.1,0-0.2-0.1-0.3-0.1l-4.8-1.5l5.1-2.6c0.1,0,0.1-0.1,0.2-0.1c0.1,0,0.1,0,0.2,0c0.3,0,0.4,0.1,0.4,0.2c0,0.1,0.1,0.4,0.2,1
			l0,0.1l0.5,0l-0.3-5l0-0.1l-0.5,0l0,0.1c0,0.3-0.1,0.6-0.2,0.7c-0.1,0.2-0.4,0.3-0.7,0.5L52.3-472.3L52.3-472.3z"/>
		<path id="path3464-0" inkscape:connector-curvature="0" class="st0" d="M62.4-464.9L62.4-464.9c-0.1,0.7-0.3,0.9-0.3,1
			c-0.1,0.1-0.2,0.1-0.7,0.1c-0.1,0-0.2,0-0.3,0l-4.9-0.3c-0.8,0-1.6,0.1-2.1,0.4c-1.1,0.6-1.7,1.7-1.8,3.4
			c-0.1,1.3,0.2,2.3,0.9,2.9c0.6,0.6,1.6,1,2.9,1.1l4.7,0.3c0.6,0,0.8,0.2,0.8,0.3c0.1,0.1,0.2,0.3,0.3,0.9l0,0.1l0.5,0l0.2-3.3
			l0-0.1l-0.5,0l0,0.1c-0.1,0.5-0.2,0.9-0.4,1.1c-0.2,0.2-0.5,0.2-1,0.2l-4.5-0.3c-0.8-0.1-1.4-0.2-1.9-0.4
			c-0.8-0.4-1.1-1.2-1.1-2.3c0.1-0.9,0.5-1.4,1.2-1.7c0.4-0.1,1-0.2,1.7-0.1l4.9,0.3c0.5,0,0.9,0.1,1,0.3c0.1,0.1,0.2,0.4,0.2,1.1
			l0,0.1l0.5,0l0.3-5l0-0.1L62.4-464.9z"/>
		<path id="path3466-2" inkscape:connector-curvature="0" class="st0" d="M61.4-451.8c-0.1,0.4-0.2,0.7-0.3,0.8
			c-0.2,0.2-0.5,0.3-0.9,0.2l-7-1.3c-0.4-0.1-0.6-0.2-0.7-0.5c-0.1-0.2-0.1-0.5,0-0.9l0-0.1l-0.5-0.1l-1.6,8.5l0,0.1l3,1.2l0.1-0.5
			l0,0c-0.9-0.6-1.4-1.3-1.7-1.9c-0.2-0.6-0.3-1.4-0.1-2.3c0.1-0.5,0.2-0.8,0.3-0.9c0.1-0.1,0.3-0.2,0.6-0.1l3.4,0.6
			c-0.2,0.8-0.4,1.3-0.8,1.5c-0.4,0.2-1,0.3-1.8,0.3l-0.1,0l-0.1,0.5l4.9,0.9l0.1,0l0.1-0.5l-0.1,0c-0.8-0.3-1.3-0.6-1.5-1
			c-0.2-0.3-0.3-0.9-0.1-1.6l3.2,0.6c0.2,0,0.4,0.1,0.5,0.2c0,0.1,0.1,0.3,0,0.8c-0.2,1.1-0.5,1.9-0.9,2.2c-0.4,0.4-1.1,0.5-2,0.6
			h-0.1l-0.1,0.5l3,0.6l0.1,0l1.6-8.4l0-0.1L61.4-451.8L61.4-451.8z"/>
		<path id="path3468-1" inkscape:connector-curvature="0" class="st0" d="M58.9-439.9c-0.2,0.4-0.3,0.6-0.4,0.8
			c-0.1,0.1-0.3,0.2-0.5,0.2c-0.1,0-0.2,0-0.4-0.1l-6.7-2.2c-0.4-0.1-0.6-0.3-0.6-0.6c0-0.2,0-0.5,0.1-0.8l0-0.1l-0.5-0.2l-2.6,8.2
			l0,0.1l3,1.6l0.1,0l0.2-0.6l0,0c-0.9-0.7-1.5-1.5-1.7-2.1c-0.2-0.7-0.1-1.4,0.1-2.2c0.1-0.5,0.3-0.7,0.4-0.9
			c0.1-0.1,0.3-0.1,0.6,0l6.6,2.1c0.5,0.2,0.8,0.4,0.9,0.6c0.1,0.2,0,0.6-0.1,1.2l0,0.1l0.5,0.2l1.6-5l0-0.1L58.9-439.9L58.9-439.9z
			"/>
		<path id="path3470-0" inkscape:connector-curvature="0" class="st0" d="M55.6-429.7c-0.2,0.3-0.3,0.5-0.5,0.5
			c-0.2,0.1-0.5,0.1-0.8,0.1l-9.6-0.1h-0.1l-0.2,0.5l6.6,6.6c0.3,0.3,0.5,0.6,0.6,0.8c0.1,0.2,0,0.5,0,0.8l0,0.1l0.5,0.2l1.3-3
			l-0.5-0.2l0,0.1c-0.2,0.4-0.4,0.7-0.5,0.8c-0.1,0.1-0.3,0.1-0.5,0c-0.1,0-0.2-0.1-0.4-0.3c-0.1-0.1-0.2-0.1-0.3-0.2l-3.6-3.6
			l5.7,0.1c0.1,0,0.1,0,0.2,0c0.1,0,0.1,0,0.2,0.1c0.2,0.1,0.3,0.2,0.3,0.3c0,0.1-0.1,0.5-0.3,1l0,0.1l0.5,0.2l2.1-4.6L55.6-429.7
			L55.6-429.7z"/>
		<path id="path3472-5" inkscape:connector-curvature="0" class="st0" d="M50.2-417.9c-0.2,0.3-0.4,0.6-0.6,0.6
			c-0.2,0.1-0.5,0.1-0.9-0.1l-6.1-3.7c-0.3-0.2-0.5-0.4-0.5-0.7c0-0.2,0.1-0.5,0.3-0.8l0-0.1l-0.5-0.3l-4.5,7.4l0,0.1l2.3,2.1
			l0.1,0.1l0.3-0.5l0,0c-0.6-0.9-0.9-1.7-0.9-2.4c0-0.7,0.2-1.4,0.7-2.2c0.3-0.4,0.5-0.6,0.6-0.7c0.2-0.1,0.3,0,0.6,0.1l3,1.8
			c-0.4,0.6-0.8,1-1.2,1.1c-0.4,0.1-1,0-1.8-0.4l-0.1,0l-0.3,0.4l4.4,2.6l0.3-0.4l0,0c-0.6-0.6-1-1-1.1-1.4c-0.1-0.4,0-0.9,0.4-1.6
			l2.8,1.7c0.2,0.1,0.3,0.3,0.3,0.4c0,0.1,0,0.3-0.3,0.8c-0.6,1-1.2,1.6-1.7,1.8c-0.5,0.2-1.2,0.1-2.1-0.2l-0.1,0l-0.3,0.4l2.7,1.6
			l4.4-7.4L50.2-417.9L50.2-417.9z"/>
		<path id="path3476-1" inkscape:connector-curvature="0" class="st0" d="M-101.8-380.5c0.7,0.4,1.2,0.7,1.6,0.7
			c0.7,0.1,1.2-0.3,1.7-1l7.7-11.7c0.5-0.7,0.5-1.3,0.2-1.9c-0.2-0.3-0.6-0.8-1.3-1.3l0.4-0.6l8.5,5.6l-0.4,0.6
			c-0.8-0.5-1.4-0.7-1.7-0.8c-0.6-0.1-1.2,0.3-1.7,1l-7.7,11.7c-0.4,0.7-0.6,1.3-0.3,1.7c0.2,0.5,0.7,1,1.5,1.5l-0.4,0.6l-8.5-5.6
			L-101.8-380.5z"/>
		<path id="path3478-1" inkscape:connector-curvature="0" class="st0" d="M-89.8-372.6c0.7,0.3,1.3,0.4,1.7,0.4
			c0.6,0,1.1-0.5,1.5-1.2l5.6-12.9c0.3-0.8,0.3-1.4-0.1-1.9c-0.2-0.3-0.7-0.6-1.5-1l0.3-0.7l8.2,3.6c1.6,0.7,2.8,1.4,3.7,2.3
			c1.7,1.5,2.1,3.2,1.3,5c-0.5,1.1-1.3,1.8-2.3,2.1c-1.1,0.3-2.1,0.3-3.1,0.1l-0.1,0.2c0.9,0.6,1.6,1.3,2.2,2.1c1,1.5,1.2,3,0.5,4.6
			c-0.6,1.5-1.8,2.4-3.6,2.7c-1.8,0.3-3.8,0-6-1l-8.6-3.7L-89.8-372.6z M-82.7-370.4c0.1,0.5,0.4,0.9,1,1.1c1.3,0.5,2.3,0.6,3.1,0.1
			c0.8-0.5,1.5-1.3,2-2.6c0.8-1.9,0.8-3.4,0-4.5c-0.5-0.7-1.5-1.3-3-1.9l-2.9,6.7C-82.6-371-82.7-370.7-82.7-370.4L-82.7-370.4z
			 M-75.5-378.3c0.8-0.3,1.5-1.1,2.1-2.5c0.4-1,0.6-2,0.6-2.8c-0.1-0.9-0.6-1.5-1.7-2c-0.6-0.2-1-0.3-1.3-0.2
			c-0.3,0.1-0.6,0.4-0.8,0.9l-2.6,6C-77.6-378.3-76.3-378.1-75.5-378.3z"/>
		<path id="path3480-0" inkscape:connector-curvature="0" class="st0" d="M-67.9-363.7c0.7,0.1,1.3-0.1,1.8-0.6
			c0.3-0.3,0.9-1,1.6-2.2l9.2-14.5l0.8,0.1l3.7,16.2c0.4,1.8,0.8,3,1,3.5c0.3,0.6,0.7,0.9,1.4,1l-0.1,0.7l-9.2-1.7l0.1-0.7
			c0.9,0.1,1.6,0.2,1.9,0.1c0.3-0.1,0.5-0.3,0.6-0.8c0-0.2,0-0.6,0-1.1c0-0.3-0.1-0.6-0.2-1l-0.4-1.9l-6.4-1.2
			c-0.6,1.1-1,1.7-1.2,2.1c-0.4,0.7-0.6,1.2-0.7,1.5c-0.1,0.4,0.1,0.8,0.7,1c0.3,0.2,0.8,0.3,1.4,0.4l-0.1,0.7l-5.8-1.1L-67.9-363.7
			z M-56.1-367.7l-1.6-7.1l-0.2,0l-3.8,6.1L-56.1-367.7z"/>
		<path id="path3482-8" inkscape:connector-curvature="0" class="st0" d="M-42.9-359.8c1-0.1,1.6-0.3,2-0.7c0.3-0.3,0.5-1.1,0.4-2.1
			l-0.8-12.8c-0.1-1.1-0.3-1.8-0.8-2.1c-0.3-0.2-0.9-0.3-1.9-0.4l0-0.7l9.3-0.6c1.9-0.1,3.5,0,4.7,0.3c2.4,0.7,3.6,2.1,3.7,4.2
			c0.1,1.6-0.4,2.8-1.6,3.8c-0.9,0.7-1.8,1.2-2.9,1.5l6.7,7.9c0.2,0.2,0.3,0.3,0.5,0.4c0.2,0.1,0.4,0.1,0.7,0.1l0,0.7l-6,0.4
			l-7.3-8.6h0l0.3,5.7c0.1,1,0.3,1.7,0.6,2c0.4,0.3,1.1,0.5,2.1,0.5l0,0.7l-9.8,0.6L-42.9-359.8z M-32.2-370.5
			c0.8-0.5,1.1-1.7,1-3.6c-0.1-1.1-0.3-2-0.6-2.6c-0.6-1.1-1.6-1.6-3-1.5c-0.8,0-1.3,0.2-1.5,0.4c-0.2,0.2-0.3,0.5-0.3,1l0.4,7.4
			C-34.3-369.6-33-370-32.2-370.5z"/>
		<path id="path3484-5" inkscape:connector-curvature="0" class="st0" d="M-17.6-362c0.9-0.3,1.5-0.7,1.8-1.1
			c0.2-0.4,0.2-1.1-0.1-2.2l-3.8-12.3c-0.3-1.1-0.8-1.7-1.3-1.9c-0.3-0.1-1-0.1-2,0.1l-0.2-0.7l8.9-2.8c1.9-0.6,3.4-0.8,4.7-0.8
			c2.5,0.1,4,1.2,4.6,3.2c0.5,1.5,0.2,2.9-0.6,4.1c-0.7,0.9-1.5,1.6-2.4,2.1l8.3,6.1c0.2,0.2,0.4,0.3,0.6,0.3c0.2,0,0.4,0,0.7-0.1
			l0.2,0.7l-5.8,1.8l-9.1-6.7h0l1.7,5.4c0.3,1,0.7,1.6,1.1,1.8c0.4,0.2,1.1,0.2,2.1,0l0.2,0.7l-9.4,2.9L-17.6-362z M-9.8-374.9
			c0.6-0.7,0.7-2,0.1-3.7c-0.3-1.1-0.7-1.9-1.2-2.4c-0.8-0.9-1.9-1.1-3.3-0.7c-0.7,0.2-1.2,0.5-1.4,0.7c-0.2,0.3-0.2,0.6-0.1,1
			l2.2,7.1C-11.6-373.6-10.4-374.2-9.8-374.9L-9.8-374.9z"/>
		<path id="path3486-0" inkscape:connector-curvature="0" class="st0" d="M6.5-370.1c0.6-0.4,0.9-1,1-1.7c0-0.5,0-1.4-0.2-2.7
			l-2.6-16.9l0.7-0.4l13.4,9.8c1.5,1.1,2.5,1.8,3.1,2c0.6,0.2,1.1,0.2,1.7-0.2l0.4,0.6l-8.1,4.8l-0.4-0.6c0.8-0.5,1.3-0.9,1.5-1.2
			c0.2-0.3,0.2-0.6-0.1-1c-0.1-0.2-0.4-0.5-0.7-0.8c-0.2-0.2-0.5-0.4-0.8-0.7l-1.5-1.1l-5.6,3.3c0.2,1.2,0.4,2,0.5,2.4
			c0.2,0.8,0.3,1.3,0.5,1.6c0.2,0.4,0.6,0.5,1.2,0.3c0.3-0.1,0.8-0.3,1.4-0.6l0.4,0.6l-5.1,3L6.5-370.1z M12.7-380.9l-5.8-4.3
			l-0.2,0.1l1.2,7.1L12.7-380.9z"/>
		<path id="path3490-6" inkscape:connector-curvature="0" class="st0" d="M32.8-398.9c0,1.2-1,2.2-2.2,2.2c-1.2,0-2.2-1-2.2-2.2
			c0-1.2,1-2.2,2.2-2.2C31.8-401,32.8-400.1,32.8-398.9z"/>
		<path id="path3492-4" inkscape:connector-curvature="0" class="st0" d="M-107-398.9c0,1.2-1,2.2-2.2,2.2c-1.2,0-2.2-1-2.2-2.2
			c0-1.2,1-2.2,2.2-2.2C-108-401-107-400.1-107-398.9z"/>
	</g>
</g>
</svg>
