<svg xmlns="http://www.w3.org/2000/svg" viewBox="0 0 320.82 399.97"><defs><style>.cls-1,.cls-2{fill:none;stroke:#fdfdfb;stroke-miterlimit:10}.cls-1{stroke-width:.5px}.cls-2{stroke-width:.75px}.cls-3{fill:#fdfdfb}</style></defs><g id="Capa_2" data-name="Capa 2"><g id="Capa_1-2" data-name="Capa 1"><path class="cls-1" d="M171.25 53.08l40-18 9.5-30.5 41.01 36.96L258.75.58l31 24.35-40.44 30.17-14.66 10.93 65.59 1.75 13.12-27.99-23.61-14.86 30.5-22.15"/><path class="cls-2" d="M120.25 6.78l52.31 48.58 22.23 19.07 39.86-7.7-23.4-30.95M148.08 74.6l-2.62-45.47"/><path class="cls-1" d="M285.37 395.54h34.98l-30.6-45.48-70.5 46.72 19.47-1.26.31-39.33 46.54 39.5 4.33-45.92-45.8-23.7-90.77 3.88 85.7 26.24-90.95 39.35-7.83-36.76 76.91 36.76-63.83-65.59-79.08 35.6 66.21-6.87-55.34-25.23 1.13-78.97-17.75 55.36-23.23 23.61h39.85l26.85 57.71-3.46-89.42-40.01 8.1-28.98-30.74-6-55.84 45.33-55.98-78.56 31.5 24.83 111.49 51.25-111.49-42.85 24.48-10.49-61.09 12.24-39.47-1.75-42.85 45.47 87.44-76.85-6.55 33.13-38.04 48.97-55.1 2.72 65.15-51.69-10.05-28.86 12.24 27.11-54.66 7-24.05 79.57 25.36-52.36-52.46h52.36"/><circle class="cls-2" cx="23.59" cy="162.49" r="6.12"/><path class="cls-3" d="M19.59 162.74l2.27 3.2 3.91-.38L27.4 162l-2.27-3.2-3.91.37-1.63 3.57z"/><circle class="cls-2" cx="197.24" cy="374.36" r="9.62"/><path class="cls-3" d="M191.75 371.09v6.17l5.34 3.08 5.34-3.08v-6.17l-5.34-3.08-5.34 3.08z"/><circle class="cls-2" cx="290.18" cy="350.63" r="16.18"/><path class="cls-3" d="M280.95 345.13v10.37l8.98 5.18 8.98-5.18v-10.37l-8.98-5.19-8.98 5.19z"/><circle class="cls-2" cx="153.51" cy="330.39" r="10.49"/><path class="cls-3" d="M147.52 326.82v6.73l5.83 3.36 5.82-3.36v-6.73l-5.82-3.36-5.83 3.36z"/><circle class="cls-2" cx="33.59" cy="222.83" r="14.87"/><path class="cls-3" d="M25.1 217.77v9.53l8.25 4.77 8.26-4.77v-9.53l-8.26-4.76-8.25 4.76z"/><circle class="cls-2" cx="67.19" cy="310.27" r="12.24"/><path class="cls-3" d="M60.2 306.11v7.85l6.8 3.92 6.8-3.92v-7.85l-6.8-3.92-6.8 3.92z"/><circle class="cls-2" cx="108.16" cy="301.28" r="7.87"/><path class="cls-3" d="M103.67 298.61v5.04l4.37 2.53 4.37-2.53v-5.04l-4.37-2.53-4.37 2.53z"/><circle class="cls-2" cx="83.68" cy="69.29" r="13.12"/><path class="cls-3" d="M76.19 64.83v8.41l7.28 4.21 7.29-4.21v-8.41l-7.29-4.2-7.28 4.2z"/><circle class="cls-2" cx="145.77" cy="28.44" r="9.62"/><path class="cls-3" d="M140.28 25.17v6.16l5.34 3.09 5.34-3.09v-6.16l-5.34-3.08-5.34 3.08z"/><circle class="cls-2" cx="194.49" cy="75.04" r="9.62"/><path class="cls-3" d="M189 71.77v6.16l5.34 3.09 5.34-3.09v-6.16l-5.34-3.09-5.34 3.09z"/><circle class="cls-2" cx="34.96" cy="123.01" r="4.42"/><path class="cls-3" d="M32.44 121.5v2.84l2.45 1.42 2.45-1.42v-2.84l-2.45-1.41-2.45 1.41z"/><circle class="cls-2" cx="244.09" cy="325.89" r="13.99"/><path class="cls-3" d="M236.1 321.13v8.97l7.77 4.49 7.77-4.49v-8.97l-7.77-4.48-7.77 4.48z"/><circle class="cls-2" cx="290.31" cy="25.19" r="9.62"/><path class="cls-3" d="M284.82 21.92v6.17l5.34 3.08 5.34-3.08v-6.17l-5.34-3.08-5.34 3.08z"/><circle class="cls-2" cx="86.68" cy="132.75" r="13.12"/><path class="cls-3" d="M79.19 128.29v8.41l7.28 4.21 7.29-4.21v-8.41l-7.29-4.2-7.28 4.2z"/><circle class="cls-2" cx="210.85" cy="35.93" r="13.99"/><path class="cls-3" d="M202.86 31.18v8.97l7.77 4.48 7.77-4.48v-8.97l-7.77-4.49-7.77 4.49z"/><circle class="cls-2" cx="84.68" cy="333.76" r="4.37"/><path class="cls-3" d="M82.18 332.27v2.81l2.43 1.4 2.43-1.4v-2.81l-2.43-1.4-2.43 1.4z"/><circle class="cls-2" cx="147.77" cy="72.54" r="5.25"/><path class="cls-3" d="M144.77 70.75v3.37l2.92 1.68 2.91-1.68v-3.37l-2.91-1.68-2.92 1.68z"/><circle class="cls-2" cx="139.9" cy="359.12" r="10.49"/><path class="cls-3" d="M133.91 355.55v6.73l5.82 3.36 5.83-3.36v-6.73l-5.83-3.36-5.82 3.36z"/><circle class="cls-2" cx="184.35" cy="379.93" r="2.62"/><path class="cls-3" d="M182.85 379.04v1.68l1.46.84 1.46-.84v-1.68l-1.46-.85-1.46.85z"/><circle class="cls-2" cx="219.48" cy="396.97" r="2.62"/><path class="cls-3" d="M217.98 396.08v1.68l1.45.85 1.46-.85v-1.68l-1.46-.84-1.45.84z"/><path class="cls-2" d="M140.25 358.78l103.86-32.96 13.14 45.61M2.48 160.74l31.42 61.9-18.93 34.29 71.46-2.37 21.82 47.22"/><path class="cls-1" d="M120.25 81.78l-33.61 51.96-53.09-53.66-27.1 54.7 16.8 28"/><path class="cls-2" d="M320.35 2.89v38.48h-58.59L258.7.7l-47.45 35.08 9.5-30.5-75.29 24.97 25.29 23.03-22.67 18.7-27.83 9.8-.16-53.53.16-21.47L84.24 67.6l-30.17 33.67M23.03 162.17l53.34 36.61M44.02 333.45l27.1 32.35 40.98 27.11"/><rect class="cls-3" x="143.75" y="126.28" width="4" height="4" rx=".56"/><rect class="cls-3" x="150.75" y="127.28" width="4" height="4" rx=".56"/><rect class="cls-3" x="156.75" y="138.28" width="4" height="4" rx=".56"/><rect class="cls-3" x="145.75" y="134.28" width="7" height="7" rx="1.09"/><rect class="cls-3" x="147.75" y="195.28" width="7" height="7" rx="1.09"/><rect class="cls-3" x="137.75" y="199.28" width="7" height="7" rx="1.09"/><rect class="cls-3" x="149.75" y="207.28" width="7" height="7" rx="1.09"/><rect class="cls-3" x="148.75" y="240.28" width="7" height="7" rx="1.09"/><rect class="cls-3" x="148.75" y="261.28" width="7" height="7" rx="1.09"/><rect class="cls-3" x="142.75" y="252.28" width="5" height="5" rx=".55"/><rect class="cls-3" x="135.75" y="131.28" width="5" height="5" rx=".6"/><rect class="cls-3" x="145.75" y="183.28" width="7" height="7" rx="1.09"/><rect class="cls-3" x="137.75" y="116.28" width="7" height="7" rx=".89"/><path class="cls-3" d="M283.27 203q-4.54-9.15-11.16-12.29a20.4 20.4 0 005-4.2 25.69 25.69 0 004.32-7 52.7 52.7 0 003.09-9.76 59.78 59.78 0 001.27-12.75 60.63 60.63 0 00-2.8-19.3 39 39 0 00-8-14 31.87 31.87 0 00-12.39-8.42 45.81 45.81 0 00-16.33-2.74H144.56l3.19 3.92v-2.36a.83.83 0 01.83-.83h5.34a.83.83 0 01.83.83v5.34a.83.83 0 01-.83.83h-3.07l7.9 9.71v-3.08a.63.63 0 01.63-.62h5.74a.63.63 0 01.63.62v5.75a.63.63 0 01-.63.63h-3.7l4.33 5.31v-1.22a1.09 1.09 0 011.09-1.09h4.82a1.09 1.09 0 011.09 1.09v3.45H242q4.94-.12 9.43 3.86t6 14.76q-1.12 14.91-6.56 17.22A24.28 24.28 0 01242 179h-83v4.32h2.63a1.09 1.09 0 011.09 1.09v4.82a1.09 1.09 0 01-1.09 1.09H159v8h2.63a1.09 1.09 0 011.09 1.09v4.82a1.09 1.09 0 01-1.09 1.09H159v5h.63a1.09 1.09 0 011.09 1.09v4.82a1.09 1.09 0 01-1.09 1.09H159v.33h30.06v-12.11h52.5a15.46 15.46 0 019.76 3.65q4.6 3.65 5.5 16.09 0 15.6-5.05 18.51a20.15 20.15 0 01-10.21 2.92h-52.5v-12.35h-18.31v3.83a1.09 1.09 0 01-1.09 1.09h-4.82a1.09 1.09 0 01-1.09-1.09v-3.83H159v6.92h3.63a1.09 1.09 0 011.09 1.09v4.82a1.09 1.09 0 01-1.09 1.09H159v6h1.63a1.09 1.09 0 011.09 1.09v4.82a1.09 1.09 0 01-1.09 1.09H159v3h4.63a1.09 1.09 0 011.09 1.09v4.82a1.09 1.09 0 01-1.09 1.09H159v2.24h88.06q11.9 0 19.74-3.59a31.4 31.4 0 0012.51-9.87 38.74 38.74 0 006.56-14.81 85.36 85.36 0 001.91-18.62q.03-14.48-4.51-23.63zm-115.52-83.65a.93.93 0 01-.93.93h-3.14a.93.93 0 01-.93-.93v-3.14a.93.93 0 01.93-.93h3.14a.93.93 0 01.93.93zm8 8a.91.91 0 01-.91.91h-4.18a.91.91 0 01-.91-.91v-4.18a.91.91 0 01.91-.91h4.18a.91.91 0 01.91.91zm7 7a.91.91 0 01-.91.91h-4.18a.91.91 0 01-.91-.91v-4.18a.91.91 0 01.91-.91h4.18a.91.91 0 01.91.91zm3-11a1 1 0 01-.95 1h-5.1a1 1 0 01-.95-1v-5.11a.94.94 0 01.95-.94h5.1a.94.94 0 01.95.94zm-12 86.86a1.09 1.09 0 01-1.09 1.09h-4.82a1.09 1.09 0 01-1.09-1.09v-4.82a1.09 1.09 0 011.09-1.09h4.82a1.09 1.09 0 011.09 1.09zm.1-13.91h-5.2a.9.9 0 01-.9-.9v-5.2a.9.9 0 01.9-.9h5.2a.9.9 0 01.9.9v5.2a.9.9 0 01-.9.88zm5.9 5.06a.94.94 0 01-.94.94h-3.12a.94.94 0 01-.94-.94v-3.13a.94.94 0 01.94-.93h3.12a.94.94 0 01.94.93zm-12 50.39v-3.9a.55.55 0 01.55-.55h3.9a.55.55 0 01.55.55v3.9a.55.55 0 01-.55.55h-3.9a.55.55 0 01-.55-.57zm9 17.46a1.09 1.09 0 01-1.09 1.09h-4.82a1.09 1.09 0 01-1.09-1.09v-4.82a1.09 1.09 0 011.09-1.09h4.82a1.09 1.09 0 011.09 1.09zm3-9.59a.68.68 0 01-.68.68h-3.64a.68.68 0 01-.68-.68V256a.67.67 0 01.68-.67h3.64a.67.67 0 01.68.67z"/></g></g></svg>