<svg xmlns="http://www.w3.org/2000/svg" viewBox="0 0 391.44 42.91">
  <defs>
    <style>.cls-1{fill:#dfe6e9}</style>
  </defs>
  <g id="Capa_2" data-name="Capa 2">
    <g id="Capa_1-2" data-name="Capa 1">
      <path class="cls-1" d="M77.25.09L62.67 23v19.24h-7.62V23L40.06.09h9.76l9.23 15.69L67.69.09zM113.72 15.24a13.82 13.82 0 01-2.5 4.88 11.59 11.59 0 01-4 3.16 12.19 12.19 0 01-5.36 1.15L114 42.27h-8.2L93.5 24.43h-4v17.81h-8V17.46h21.13a5.38 5.38 0 003.16-1.4 5 5 0 001.28-3.45 5.17 5.17 0 00-1.28-3.79 4.28 4.28 0 00-3.16-1.3h-17L79.45.09h22.43a12 12 0 015.39 1.17 11.53 11.53 0 014 3.25 14.75 14.75 0 012.47 5 9.91 9.91 0 01-.02 5.73zM164.6 18.66v23.55h-7.85V0L182 24V5.06l7.91-4.91v42.18zM245.93 34.65l5 7.59h-18.49a12.8 12.8 0 01-6.32-1.63 15.75 15.75 0 01-5-4.5 22.24 22.24 0 01-3.29-6.81 29.05 29.05 0 01-1.19-8.52 28 28 0 011.19-8.41 20.76 20.76 0 013.29-6.55 14.56 14.56 0 015-4.2 13.83 13.83 0 016.32-1.47h18.4l.06 7.7h-18.46a5.07 5.07 0 00-3.06 1 9.15 9.15 0 00-2.44 2.84 15.87 15.87 0 00-1.61 4.57 24.66 24.66 0 00-.59 5 18.84 18.84 0 00.57 4.58 17.53 17.53 0 001.62 4.21 10.15 10.15 0 002.75 3.22 5.5 5.5 0 003.35 1.3zM287.82 23.49q0 18.84-16.2 18.84a24.82 24.82 0 01-8.1-1.18 13.54 13.54 0 01-5.52-3.54 14.48 14.48 0 01-3.23-5.88 29.3 29.3 0 01-1-8.24V5l8-4.91v23.4a20.58 20.58 0 00.39 5 16.39 16.39 0 001.46 3.1 6.94 6.94 0 003 2.81 9.91 9.91 0 004.48 1 8.14 8.14 0 004.62-1.15 8.43 8.43 0 002.63-2.73 9.55 9.55 0 001.19-3 31.47 31.47 0 00.26-5V.09h8.09zM316.66 35.21l6 7h-31.43V.09h31.13v7.7h-23.08v9.46h17.58l-.09 7.23h-17.49v10.73zM334.38.09l9.55 25 10-25h7.73l-17.88 42.24L326.32.09zM366.16 42.24l-2.74-7.09H379l-7.64-17.81L360 42.24h-8.91L371.48 0l20 42.21zM143.1 31.87a9.11 9.11 0 01-2.75 2.37 10.93 10.93 0 01-9.64 0 9 9 0 01-3.19-3 13.67 13.67 0 01-1.76-3.89 20.92 20.92 0 01-.55-5.28 20.89 20.89 0 01.55-5.27 11.56 11.56 0 011.76-3.72 1.47 1.47 0 00.1-.13l-5.9-7.2q-4 5.17-4 15.71 0 11.16 4.44 16.31t13.4 5.14q8.43 0 12.86-4.57zM130.05 10.56l.66-.45a9.85 9.85 0 019.64 0 11.4 11.4 0 013.19 3 11.56 11.56 0 011.76 3.72 20.44 20.44 0 01.55 5.27 20.47 20.47 0 01-.55 5.28 10.61 10.61 0 01-.44 1.31l5.63 6.87q2.88-5.09 2.88-14.07 0-11.08-4.46-16.23T135.53.09q-7.11 0-11.38 3.26zM36.34 23.76a6.54 6.54 0 00-2.92-3.21 5.49 5.49 0 001.32-1.11 6.66 6.66 0 001.13-1.82 12.86 12.86 0 00.81-2.56A15.29 15.29 0 0037 11.7a15.82 15.82 0 00-.74-5.06A10.09 10.09 0 0034.18 3 8.31 8.31 0 0030.94.78a12 12 0 00-4.28-.72H0l6 7.41h19.54a3.53 3.53 0 012.47 1 6.33 6.33 0 011.59 3.87c-.2 2.6-.77 4.11-1.72 4.51a6.36 6.36 0 01-2.34.6H3.79v11h7.88v-4h13.76a4 4 0 012.55.95c.81.64 1.29 2 1.44 4.22q0 4.08-1.32 4.85a5.27 5.27 0 01-2.67.76H11.67v-3.78H3.79v10.79h23.08A12.57 12.57 0 0032 41.3a8.33 8.33 0 003.28-2.59A10.32 10.32 0 0037 34.83a22.58 22.58 0 00.5-4.88 13.84 13.84 0 00-1.16-6.19z"/>
    </g>
  </g>
</svg>